<svg xmlns="http://www.w3.org/2000/svg" width="860" height="360">
  <rect width="100%" height="100%" fill="#f8fbff" />
  <text x="16" y="24" font-size="20" font-weight="700" fill="#102a43">Request 4 Lunar CRD Monthly Ensemble</text>
  <text x="16" y="334" font-size="13" fill="#486581">files=67  normal_points=961  coverage=2025-01-03T00:37:50Z .. 2026-02-27T22:24:50.366086Z</text>
  <text x="16" y="62" font-size="15" fill="#102a43">apollo15</text><rect x="180" y="44" width="620" height="18" rx="4" fill="#1f6feb" /><text x="810" y="58" font-size="13" fill="#334e68">441 rows / 14 files</text><text x="16" y="96" font-size="15" fill="#102a43">apollo11</text><rect x="180" y="78" width="166" height="18" rx="4" fill="#1f6feb" /><text x="356" y="92" font-size="13" fill="#334e68">118 rows / 12 files</text><text x="16" y="130" font-size="15" fill="#102a43">apollo14</text><rect x="180" y="112" width="146" height="18" rx="4" fill="#1f6feb" /><text x="336" y="126" font-size="13" fill="#334e68">104 rows / 11 files</text><text x="16" y="164" font-size="15" fill="#102a43">luna17</text><rect x="180" y="146" width="156" height="18" rx="4" fill="#1f6feb" /><text x="346" y="160" font-size="13" fill="#334e68">111 rows / 11 files</text><text x="16" y="198" font-size="15" fill="#102a43">luna21</text><rect x="180" y="180" width="207" height="18" rx="4" fill="#1f6feb" /><text x="397" y="194" font-size="13" fill="#334e68">147 rows / 11 files</text><text x="16" y="232" font-size="15" fill="#102a43">nglr1</text><rect x="180" y="214" width="56" height="18" rx="4" fill="#1f6feb" /><text x="246" y="228" font-size="13" fill="#334e68">40 rows / 8 files</text>
</svg>
