<svg xmlns="http://www.w3.org/2000/svg" width="1320" height="980" viewBox="0 0 1320 980">
<style>
  .title { font: 700 24px sans-serif; fill: #111827; }
  .subtitle { font: 400 14px sans-serif; fill: #4b5563; }
  .label { font: 600 14px sans-serif; fill: #1f2937; }
  .tick { font: 12px monospace; fill: #374151; }
  .legend { font: 13px sans-serif; fill: #111827; }
  .note { font: 12px sans-serif; fill: #4b5563; }
  .axis { stroke: #111827; stroke-width: 1.4; fill: none; }
  .grid { stroke: #d1d5db; stroke-width: 1; fill: none; }
  .uniform { stroke: #d97706; stroke-width: 2.8; fill: none; stroke-dasharray: 8 5; }
  .poly { stroke: #0f766e; stroke-width: 3.2; fill: none; }
</style>

<rect width="100%" height="100%" fill="#f8fafc" />
<text class="title" x="50" y="48">Request 2: Internal-Structure Consistency</text>
<text class="subtitle" x="50" y="74">Scalings for alpha = 1 - lambda when self-gravity is inserted literally into hydrostatic support.</text>
<line class="uniform" x1="52" y1="108.00" x2="122" y2="108.00" />
<text class="legend" x="132" y="112.00">Uniform sphere toy (fixed M, fixed input R)</text>
<line class="poly" x1="520" y1="108.00" x2="590" y2="108.00" />
<text class="legend" x="600" y="112.00">n = 1 polytrope (fixed M, fixed K)</text>
<rect class="axis" x="60.00" y="150.00" width="560.00" height="320.00" />
<text class="label" x="60.00" y="140.00">Radius ratio R(lambda) / R(0)</text>
<line class="grid" x1="60.00" y1="150.00" x2="60.00" y2="470.00" />
<text class="tick" x="48.00" y="488.00">0</text>
<line class="grid" x1="200.00" y1="150.00" x2="200.00" y2="470.00" />
<text class="tick" x="188.00" y="488.00">0.25</text>
<line class="grid" x1="340.00" y1="150.00" x2="340.00" y2="470.00" />
<text class="tick" x="328.00" y="488.00">0.5</text>
<line class="grid" x1="480.00" y1="150.00" x2="480.00" y2="470.00" />
<text class="tick" x="468.00" y="488.00">0.75</text>
<line class="grid" x1="564.00" y1="150.00" x2="564.00" y2="470.00" />
<text class="tick" x="552.00" y="488.00">0.9</text>
<line class="grid" x1="614.40" y1="150.00" x2="614.40" y2="470.00" />
<text class="tick" x="602.40" y="488.00">0.99</text>
<text class="label" x="316.00" y="508.00">lambda</text>
<line class="grid" x1="60.00" y1="470.00" x2="620.00" y2="470.00" />
<text class="tick" x="16.00" y="474.00">1</text>
<line class="grid" x1="60.00" y1="413.30" x2="620.00" y2="413.30" />
<text class="tick" x="16.00" y="417.30">2</text>
<line class="grid" x1="60.00" y1="338.35" x2="620.00" y2="338.35" />
<text class="tick" x="16.00" y="342.35">5</text>
<line class="grid" x1="60.00" y1="281.65" x2="620.00" y2="281.65" />
<text class="tick" x="16.00" y="285.65">10</text>
<line class="grid" x1="60.00" y1="224.95" x2="620.00" y2="224.95" />
<text class="tick" x="16.00" y="228.95">20</text>
<line class="grid" x1="60.00" y1="150.00" x2="620.00" y2="150.00" />
<text class="tick" x="16.00" y="154.00">50</text>
<path class="uniform" d="M 60.00,470.00 L 61.12,470.00 L 62.24,470.00 L 63.36,470.00 L 64.48,470.00 L 65.61,470.00 L 66.73,470.00 L 67.85,470.00 L 68.97,470.00 L 70.09,470.00 L 71.21,470.00 L 72.33,470.00 L 73.45,470.00 L 74.57,470.00 L 75.70,470.00 L 76.82,470.00 L 77.94,470.00 L 79.06,470.00 L 80.18,470.00 L 81.30,470.00 L 82.42,470.00 L 83.54,470.00 L 84.66,470.00 L 85.79,470.00 L 86.91,470.00 L 88.03,470.00 L 89.15,470.00 L 90.27,470.00 L 91.39,470.00 L 92.51,470.00 L 93.63,470.00 L 94.75,470.00 L 95.88,470.00 L 97.00,470.00 L 98.12,470.00 L 99.24,470.00 L 100.36,470.00 L 101.48,470.00 L 102.60,470.00 L 103.72,470.00 L 104.84,470.00 L 105.97,470.00 L 107.09,470.00 L 108.21,470.00 L 109.33,470.00 L 110.45,470.00 L 111.57,470.00 L 112.69,470.00 L 113.81,470.00 L 114.93,470.00 L 116.06,470.00 L 117.18,470.00 L 118.30,470.00 L 119.42,470.00 L 120.54,470.00 L 121.66,470.00 L 122.78,470.00 L 123.90,470.00 L 125.03,470.00 L 126.15,470.00 L 127.27,470.00 L 128.39,470.00 L 129.51,470.00 L 130.63,470.00 L 131.75,470.00 L 132.87,470.00 L 133.99,470.00 L 135.12,470.00 L 136.24,470.00 L 137.36,470.00 L 138.48,470.00 L 139.60,470.00 L 140.72,470.00 L 141.84,470.00 L 142.96,470.00 L 144.08,470.00 L 145.21,470.00 L 146.33,470.00 L 147.45,470.00 L 148.57,470.00 L 149.69,470.00 L 150.81,470.00 L 151.93,470.00 L 153.05,470.00 L 154.17,470.00 L 155.30,470.00 L 156.42,470.00 L 157.54,470.00 L 158.66,470.00 L 159.78,470.00 L 160.90,470.00 L 162.02,470.00 L 163.14,470.00 L 164.26,470.00 L 165.39,470.00 L 166.51,470.00 L 167.63,470.00 L 168.75,470.00 L 169.87,470.00 L 170.99,470.00 L 172.11,470.00 L 173.23,470.00 L 174.35,470.00 L 175.48,470.00 L 176.60,470.00 L 177.72,470.00 L 178.84,470.00 L 179.96,470.00 L 181.08,470.00 L 182.20,470.00 L 183.32,470.00 L 184.44,470.00 L 185.57,470.00 L 186.69,470.00 L 187.81,470.00 L 188.93,470.00 L 190.05,470.00 L 191.17,470.00 L 192.29,470.00 L 193.41,470.00 L 194.53,470.00 L 195.66,470.00 L 196.78,470.00 L 197.90,470.00 L 199.02,470.00 L 200.14,470.00 L 201.26,470.00 L 202.38,470.00 L 203.50,470.00 L 204.62,470.00 L 205.75,470.00 L 206.87,470.00 L 207.99,470.00 L 209.11,470.00 L 210.23,470.00 L 211.35,470.00 L 212.47,470.00 L 213.59,470.00 L 214.71,470.00 L 215.84,470.00 L 216.96,470.00 L 218.08,470.00 L 219.20,470.00 L 220.32,470.00 L 221.44,470.00 L 222.56,470.00 L 223.68,470.00 L 224.80,470.00 L 225.93,470.00 L 227.05,470.00 L 228.17,470.00 L 229.29,470.00 L 230.41,470.00 L 231.53,470.00 L 232.65,470.00 L 233.77,470.00 L 234.90,470.00 L 236.02,470.00 L 237.14,470.00 L 238.26,470.00 L 239.38,470.00 L 240.50,470.00 L 241.62,470.00 L 242.74,470.00 L 243.86,470.00 L 244.99,470.00 L 246.11,470.00 L 247.23,470.00 L 248.35,470.00 L 249.47,470.00 L 250.59,470.00 L 251.71,470.00 L 252.83,470.00 L 253.95,470.00 L 255.08,470.00 L 256.20,470.00 L 257.32,470.00 L 258.44,470.00 L 259.56,470.00 L 260.68,470.00 L 261.80,470.00 L 262.92,470.00 L 264.04,470.00 L 265.17,470.00 L 266.29,470.00 L 267.41,470.00 L 268.53,470.00 L 269.65,470.00 L 270.77,470.00 L 271.89,470.00 L 273.01,470.00 L 274.13,470.00 L 275.26,470.00 L 276.38,470.00 L 277.50,470.00 L 278.62,470.00 L 279.74,470.00 L 280.86,470.00 L 281.98,470.00 L 283.10,470.00 L 284.22,470.00 L 285.35,470.00 L 286.47,470.00 L 287.59,470.00 L 288.71,470.00 L 289.83,470.00 L 290.95,470.00 L 292.07,470.00 L 293.19,470.00 L 294.31,470.00 L 295.44,470.00 L 296.56,470.00 L 297.68,470.00 L 298.80,470.00 L 299.92,470.00 L 301.04,470.00 L 302.16,470.00 L 303.28,470.00 L 304.40,470.00 L 305.53,470.00 L 306.65,470.00 L 307.77,470.00 L 308.89,470.00 L 310.01,470.00 L 311.13,470.00 L 312.25,470.00 L 313.37,470.00 L 314.49,470.00 L 315.62,470.00 L 316.74,470.00 L 317.86,470.00 L 318.98,470.00 L 320.10,470.00 L 321.22,470.00 L 322.34,470.00 L 323.46,470.00 L 324.58,470.00 L 325.71,470.00 L 326.83,470.00 L 327.95,470.00 L 329.07,470.00 L 330.19,470.00 L 331.31,470.00 L 332.43,470.00 L 333.55,470.00 L 334.67,470.00 L 335.80,470.00 L 336.92,470.00 L 338.04,470.00 L 339.16,470.00 L 340.28,470.00 L 341.40,470.00 L 342.52,470.00 L 343.64,470.00 L 344.77,470.00 L 345.89,470.00 L 347.01,470.00 L 348.13,470.00 L 349.25,470.00 L 350.37,470.00 L 351.49,470.00 L 352.61,470.00 L 353.73,470.00 L 354.86,470.00 L 355.98,470.00 L 357.10,470.00 L 358.22,470.00 L 359.34,470.00 L 360.46,470.00 L 361.58,470.00 L 362.70,470.00 L 363.82,470.00 L 364.95,470.00 L 366.07,470.00 L 367.19,470.00 L 368.31,470.00 L 369.43,470.00 L 370.55,470.00 L 371.67,470.00 L 372.79,470.00 L 373.91,470.00 L 375.04,470.00 L 376.16,470.00 L 377.28,470.00 L 378.40,470.00 L 379.52,470.00 L 380.64,470.00 L 381.76,470.00 L 382.88,470.00 L 384.00,470.00 L 385.13,470.00 L 386.25,470.00 L 387.37,470.00 L 388.49,470.00 L 389.61,470.00 L 390.73,470.00 L 391.85,470.00 L 392.97,470.00 L 394.09,470.00 L 395.22,470.00 L 396.34,470.00 L 397.46,470.00 L 398.58,470.00 L 399.70,470.00 L 400.82,470.00 L 401.94,470.00 L 403.06,470.00 L 404.18,470.00 L 405.31,470.00 L 406.43,470.00 L 407.55,470.00 L 408.67,470.00 L 409.79,470.00 L 410.91,470.00 L 412.03,470.00 L 413.15,470.00 L 414.27,470.00 L 415.40,470.00 L 416.52,470.00 L 417.64,470.00 L 418.76,470.00 L 419.88,470.00 L 421.00,470.00 L 422.12,470.00 L 423.24,470.00 L 424.36,470.00 L 425.49,470.00 L 426.61,470.00 L 427.73,470.00 L 428.85,470.00 L 429.97,470.00 L 431.09,470.00 L 432.21,470.00 L 433.33,470.00 L 434.45,470.00 L 435.58,470.00 L 436.70,470.00 L 437.82,470.00 L 438.94,470.00 L 440.06,470.00 L 441.18,470.00 L 442.30,470.00 L 443.42,470.00 L 444.54,470.00 L 445.67,470.00 L 446.79,470.00 L 447.91,470.00 L 449.03,470.00 L 450.15,470.00 L 451.27,470.00 L 452.39,470.00 L 453.51,470.00 L 454.64,470.00 L 455.76,470.00 L 456.88,470.00 L 458.00,470.00 L 459.12,470.00 L 460.24,470.00 L 461.36,470.00 L 462.48,470.00 L 463.60,470.00 L 464.73,470.00 L 465.85,470.00 L 466.97,470.00 L 468.09,470.00 L 469.21,470.00 L 470.33,470.00 L 471.45,470.00 L 472.57,470.00 L 473.69,470.00 L 474.82,470.00 L 475.94,470.00 L 477.06,470.00 L 478.18,470.00 L 479.30,470.00 L 480.42,470.00 L 481.54,470.00 L 482.66,470.00 L 483.78,470.00 L 484.91,470.00 L 486.03,470.00 L 487.15,470.00 L 488.27,470.00 L 489.39,470.00 L 490.51,470.00 L 491.63,470.00 L 492.75,470.00 L 493.87,470.00 L 495.00,470.00 L 496.12,470.00 L 497.24,470.00 L 498.36,470.00 L 499.48,470.00 L 500.60,470.00 L 501.72,470.00 L 502.84,470.00 L 503.96,470.00 L 505.09,470.00 L 506.21,470.00 L 507.33,470.00 L 508.45,470.00 L 509.57,470.00 L 510.69,470.00 L 511.81,470.00 L 512.93,470.00 L 514.05,470.00 L 515.18,470.00 L 516.30,470.00 L 517.42,470.00 L 518.54,470.00 L 519.66,470.00 L 520.78,470.00 L 521.90,470.00 L 523.02,470.00 L 524.14,470.00 L 525.27,470.00 L 526.39,470.00 L 527.51,470.00 L 528.63,470.00 L 529.75,470.00 L 530.87,470.00 L 531.99,470.00 L 533.11,470.00 L 534.23,470.00 L 535.36,470.00 L 536.48,470.00 L 537.60,470.00 L 538.72,470.00 L 539.84,470.00 L 540.96,470.00 L 542.08,470.00 L 543.20,470.00 L 544.32,470.00 L 545.45,470.00 L 546.57,470.00 L 547.69,470.00 L 548.81,470.00 L 549.93,470.00 L 551.05,470.00 L 552.17,470.00 L 553.29,470.00 L 554.41,470.00 L 555.54,470.00 L 556.66,470.00 L 557.78,470.00 L 558.90,470.00 L 560.02,470.00 L 561.14,470.00 L 562.26,470.00 L 563.38,470.00 L 564.51,470.00 L 565.63,470.00 L 566.75,470.00 L 567.87,470.00 L 568.99,470.00 L 570.11,470.00 L 571.23,470.00 L 572.35,470.00 L 573.47,470.00 L 574.60,470.00 L 575.72,470.00 L 576.84,470.00 L 577.96,470.00 L 579.08,470.00 L 580.20,470.00 L 581.32,470.00 L 582.44,470.00 L 583.56,470.00 L 584.69,470.00 L 585.81,470.00 L 586.93,470.00 L 588.05,470.00 L 589.17,470.00 L 590.29,470.00 L 591.41,470.00 L 592.53,470.00 L 593.65,470.00 L 594.78,470.00 L 595.90,470.00 L 597.02,470.00 L 598.14,470.00 L 599.26,470.00 L 600.38,470.00 L 601.50,470.00 L 602.62,470.00 L 603.74,470.00 L 604.87,470.00 L 605.99,470.00 L 607.11,470.00 L 608.23,470.00 L 609.35,470.00 L 610.47,470.00 L 611.59,470.00 L 612.71,470.00 L 613.83,470.00 L 614.96,470.00 L 616.08,470.00 L 617.20,470.00 L 618.32,470.00 L 619.44,470.00" />
<path class="poly" d="M 60.00,470.00 L 61.12,469.92 L 62.24,469.84 L 63.36,469.75 L 64.48,469.67 L 65.61,469.59 L 66.73,469.51 L 67.85,469.42 L 68.97,469.34 L 70.09,469.26 L 71.21,469.17 L 72.33,469.09 L 73.45,469.01 L 74.57,468.92 L 75.70,468.84 L 76.82,468.75 L 77.94,468.67 L 79.06,468.58 L 80.18,468.50 L 81.30,468.41 L 82.42,468.33 L 83.54,468.24 L 84.66,468.16 L 85.79,468.07 L 86.91,467.99 L 88.03,467.90 L 89.15,467.81 L 90.27,467.73 L 91.39,467.64 L 92.51,467.55 L 93.63,467.47 L 94.75,467.38 L 95.88,467.29 L 97.00,467.20 L 98.12,467.12 L 99.24,467.03 L 100.36,466.94 L 101.48,466.85 L 102.60,466.76 L 103.72,466.68 L 104.84,466.59 L 105.97,466.50 L 107.09,466.41 L 108.21,466.32 L 109.33,466.23 L 110.45,466.14 L 111.57,466.05 L 112.69,465.96 L 113.81,465.87 L 114.93,465.78 L 116.06,465.69 L 117.18,465.60 L 118.30,465.50 L 119.42,465.41 L 120.54,465.32 L 121.66,465.23 L 122.78,465.14 L 123.90,465.04 L 125.03,464.95 L 126.15,464.86 L 127.27,464.77 L 128.39,464.67 L 129.51,464.58 L 130.63,464.49 L 131.75,464.39 L 132.87,464.30 L 133.99,464.20 L 135.12,464.11 L 136.24,464.01 L 137.36,463.92 L 138.48,463.82 L 139.60,463.73 L 140.72,463.63 L 141.84,463.54 L 142.96,463.44 L 144.08,463.35 L 145.21,463.25 L 146.33,463.15 L 147.45,463.06 L 148.57,462.96 L 149.69,462.86 L 150.81,462.76 L 151.93,462.67 L 153.05,462.57 L 154.17,462.47 L 155.30,462.37 L 156.42,462.27 L 157.54,462.17 L 158.66,462.07 L 159.78,461.97 L 160.90,461.87 L 162.02,461.77 L 163.14,461.67 L 164.26,461.57 L 165.39,461.47 L 166.51,461.37 L 167.63,461.27 L 168.75,461.17 L 169.87,461.07 L 170.99,460.97 L 172.11,460.86 L 173.23,460.76 L 174.35,460.66 L 175.48,460.55 L 176.60,460.45 L 177.72,460.35 L 178.84,460.24 L 179.96,460.14 L 181.08,460.04 L 182.20,459.93 L 183.32,459.83 L 184.44,459.72 L 185.57,459.62 L 186.69,459.51 L 187.81,459.40 L 188.93,459.30 L 190.05,459.19 L 191.17,459.08 L 192.29,458.98 L 193.41,458.87 L 194.53,458.76 L 195.66,458.65 L 196.78,458.55 L 197.90,458.44 L 199.02,458.33 L 200.14,458.22 L 201.26,458.11 L 202.38,458.00 L 203.50,457.89 L 204.62,457.78 L 205.75,457.67 L 206.87,457.56 L 207.99,457.45 L 209.11,457.34 L 210.23,457.23 L 211.35,457.11 L 212.47,457.00 L 213.59,456.89 L 214.71,456.78 L 215.84,456.66 L 216.96,456.55 L 218.08,456.43 L 219.20,456.32 L 220.32,456.21 L 221.44,456.09 L 222.56,455.98 L 223.68,455.86 L 224.80,455.74 L 225.93,455.63 L 227.05,455.51 L 228.17,455.39 L 229.29,455.28 L 230.41,455.16 L 231.53,455.04 L 232.65,454.92 L 233.77,454.81 L 234.90,454.69 L 236.02,454.57 L 237.14,454.45 L 238.26,454.33 L 239.38,454.21 L 240.50,454.09 L 241.62,453.97 L 242.74,453.84 L 243.86,453.72 L 244.99,453.60 L 246.11,453.48 L 247.23,453.36 L 248.35,453.23 L 249.47,453.11 L 250.59,452.98 L 251.71,452.86 L 252.83,452.74 L 253.95,452.61 L 255.08,452.48 L 256.20,452.36 L 257.32,452.23 L 258.44,452.11 L 259.56,451.98 L 260.68,451.85 L 261.80,451.72 L 262.92,451.60 L 264.04,451.47 L 265.17,451.34 L 266.29,451.21 L 267.41,451.08 L 268.53,450.95 L 269.65,450.82 L 270.77,450.69 L 271.89,450.56 L 273.01,450.42 L 274.13,450.29 L 275.26,450.16 L 276.38,450.03 L 277.50,449.89 L 278.62,449.76 L 279.74,449.62 L 280.86,449.49 L 281.98,449.35 L 283.10,449.22 L 284.22,449.08 L 285.35,448.94 L 286.47,448.81 L 287.59,448.67 L 288.71,448.53 L 289.83,448.39 L 290.95,448.25 L 292.07,448.11 L 293.19,447.97 L 294.31,447.83 L 295.44,447.69 L 296.56,447.55 L 297.68,447.41 L 298.80,447.27 L 299.92,447.12 L 301.04,446.98 L 302.16,446.83 L 303.28,446.69 L 304.40,446.55 L 305.53,446.40 L 306.65,446.25 L 307.77,446.11 L 308.89,445.96 L 310.01,445.81 L 311.13,445.66 L 312.25,445.52 L 313.37,445.37 L 314.49,445.22 L 315.62,445.07 L 316.74,444.91 L 317.86,444.76 L 318.98,444.61 L 320.10,444.46 L 321.22,444.31 L 322.34,444.15 L 323.46,444.00 L 324.58,443.84 L 325.71,443.69 L 326.83,443.53 L 327.95,443.37 L 329.07,443.22 L 330.19,443.06 L 331.31,442.90 L 332.43,442.74 L 333.55,442.58 L 334.67,442.42 L 335.80,442.26 L 336.92,442.10 L 338.04,441.94 L 339.16,441.77 L 340.28,441.61 L 341.40,441.45 L 342.52,441.28 L 343.64,441.11 L 344.77,440.95 L 345.89,440.78 L 347.01,440.61 L 348.13,440.45 L 349.25,440.28 L 350.37,440.11 L 351.49,439.94 L 352.61,439.77 L 353.73,439.59 L 354.86,439.42 L 355.98,439.25 L 357.10,439.07 L 358.22,438.90 L 359.34,438.72 L 360.46,438.55 L 361.58,438.37 L 362.70,438.19 L 363.82,438.01 L 364.95,437.83 L 366.07,437.65 L 367.19,437.47 L 368.31,437.29 L 369.43,437.11 L 370.55,436.93 L 371.67,436.74 L 372.79,436.56 L 373.91,436.37 L 375.04,436.18 L 376.16,436.00 L 377.28,435.81 L 378.40,435.62 L 379.52,435.43 L 380.64,435.24 L 381.76,435.04 L 382.88,434.85 L 384.00,434.66 L 385.13,434.46 L 386.25,434.27 L 387.37,434.07 L 388.49,433.87 L 389.61,433.67 L 390.73,433.48 L 391.85,433.27 L 392.97,433.07 L 394.09,432.87 L 395.22,432.67 L 396.34,432.46 L 397.46,432.26 L 398.58,432.05 L 399.70,431.84 L 400.82,431.63 L 401.94,431.42 L 403.06,431.21 L 404.18,431.00 L 405.31,430.79 L 406.43,430.57 L 407.55,430.36 L 408.67,430.14 L 409.79,429.93 L 410.91,429.71 L 412.03,429.49 L 413.15,429.27 L 414.27,429.04 L 415.40,428.82 L 416.52,428.60 L 417.64,428.37 L 418.76,428.14 L 419.88,427.91 L 421.00,427.68 L 422.12,427.45 L 423.24,427.22 L 424.36,426.99 L 425.49,426.75 L 426.61,426.52 L 427.73,426.28 L 428.85,426.04 L 429.97,425.80 L 431.09,425.56 L 432.21,425.31 L 433.33,425.07 L 434.45,424.82 L 435.58,424.57 L 436.70,424.32 L 437.82,424.07 L 438.94,423.82 L 440.06,423.57 L 441.18,423.31 L 442.30,423.05 L 443.42,422.79 L 444.54,422.53 L 445.67,422.27 L 446.79,422.01 L 447.91,421.74 L 449.03,421.47 L 450.15,421.21 L 451.27,420.93 L 452.39,420.66 L 453.51,420.39 L 454.64,420.11 L 455.76,419.83 L 456.88,419.55 L 458.00,419.27 L 459.12,418.99 L 460.24,418.70 L 461.36,418.41 L 462.48,418.12 L 463.60,417.83 L 464.73,417.54 L 465.85,417.24 L 466.97,416.94 L 468.09,416.64 L 469.21,416.34 L 470.33,416.03 L 471.45,415.73 L 472.57,415.42 L 473.69,415.10 L 474.82,414.79 L 475.94,414.47 L 477.06,414.15 L 478.18,413.83 L 479.30,413.51 L 480.42,413.18 L 481.54,412.85 L 482.66,412.52 L 483.78,412.18 L 484.91,411.84 L 486.03,411.50 L 487.15,411.16 L 488.27,410.81 L 489.39,410.46 L 490.51,410.11 L 491.63,409.75 L 492.75,409.39 L 493.87,409.03 L 495.00,408.67 L 496.12,408.30 L 497.24,407.93 L 498.36,407.55 L 499.48,407.17 L 500.60,406.79 L 501.72,406.41 L 502.84,406.02 L 503.96,405.62 L 505.09,405.23 L 506.21,404.82 L 507.33,404.42 L 508.45,404.01 L 509.57,403.60 L 510.69,403.18 L 511.81,402.76 L 512.93,402.33 L 514.05,401.90 L 515.18,401.47 L 516.30,401.03 L 517.42,400.58 L 518.54,400.13 L 519.66,399.68 L 520.78,399.22 L 521.90,398.75 L 523.02,398.28 L 524.14,397.81 L 525.27,397.33 L 526.39,396.84 L 527.51,396.35 L 528.63,395.85 L 529.75,395.34 L 530.87,394.83 L 531.99,394.31 L 533.11,393.79 L 534.23,393.26 L 535.36,392.72 L 536.48,392.18 L 537.60,391.62 L 538.72,391.06 L 539.84,390.49 L 540.96,389.92 L 542.08,389.33 L 543.20,388.74 L 544.32,388.14 L 545.45,387.53 L 546.57,386.91 L 547.69,386.28 L 548.81,385.64 L 549.93,384.99 L 551.05,384.33 L 552.17,383.66 L 553.29,382.98 L 554.41,382.29 L 555.54,381.58 L 556.66,380.86 L 557.78,380.13 L 558.90,379.39 L 560.02,378.63 L 561.14,377.86 L 562.26,377.07 L 563.38,376.27 L 564.51,375.45 L 565.63,374.62 L 566.75,373.77 L 567.87,372.90 L 568.99,372.01 L 570.11,371.10 L 571.23,370.17 L 572.35,369.22 L 573.47,368.24 L 574.60,367.25 L 575.72,366.22 L 576.84,365.18 L 577.96,364.10 L 579.08,362.99 L 580.20,361.86 L 581.32,360.69 L 582.44,359.49 L 583.56,358.25 L 584.69,356.97 L 585.81,355.65 L 586.93,354.29 L 588.05,352.88 L 589.17,351.41 L 590.29,349.90 L 591.41,348.33 L 592.53,346.69 L 593.65,344.99 L 594.78,343.21 L 595.90,341.35 L 597.02,339.40 L 598.14,337.35 L 599.26,335.20 L 600.38,332.93 L 601.50,330.52 L 602.62,327.96 L 603.74,325.24 L 604.87,322.31 L 605.99,319.17 L 607.11,315.76 L 608.23,312.03 L 609.35,307.94 L 610.47,303.39 L 611.59,298.27 L 612.71,292.42 L 613.83,285.59 L 614.96,277.38 L 616.08,267.10 L 617.20,253.33 L 618.32,232.44 L 619.44,187.48" />
<text class="note" x="60.00" y="528.00">Uniform-sphere radius is an imposed toy input, not an equilibrium prediction.</text>
<rect class="axis" x="700.00" y="150.00" width="560.00" height="320.00" />
<text class="label" x="700.00" y="140.00">Central density ratio rho_c(lambda) / rho_c(0)</text>
<line class="grid" x1="700.00" y1="150.00" x2="700.00" y2="470.00" />
<text class="tick" x="688.00" y="488.00">0</text>
<line class="grid" x1="840.00" y1="150.00" x2="840.00" y2="470.00" />
<text class="tick" x="828.00" y="488.00">0.25</text>
<line class="grid" x1="980.00" y1="150.00" x2="980.00" y2="470.00" />
<text class="tick" x="968.00" y="488.00">0.5</text>
<line class="grid" x1="1120.00" y1="150.00" x2="1120.00" y2="470.00" />
<text class="tick" x="1108.00" y="488.00">0.75</text>
<line class="grid" x1="1204.00" y1="150.00" x2="1204.00" y2="470.00" />
<text class="tick" x="1192.00" y="488.00">0.9</text>
<line class="grid" x1="1254.40" y1="150.00" x2="1254.40" y2="470.00" />
<text class="tick" x="1242.40" y="488.00">0.99</text>
<text class="label" x="956.00" y="508.00">lambda</text>
<line class="grid" x1="700.00" y1="150.00" x2="1260.00" y2="150.00" />
<text class="tick" x="656.00" y="154.00">1</text>
<line class="grid" x1="700.00" y1="214.00" x2="1260.00" y2="214.00" />
<text class="tick" x="656.00" y="218.00">1e-1</text>
<line class="grid" x1="700.00" y1="278.00" x2="1260.00" y2="278.00" />
<text class="tick" x="656.00" y="282.00">1e-2</text>
<line class="grid" x1="700.00" y1="342.00" x2="1260.00" y2="342.00" />
<text class="tick" x="656.00" y="346.00">1e-3</text>
<line class="grid" x1="700.00" y1="406.00" x2="1260.00" y2="406.00" />
<text class="tick" x="656.00" y="410.00">1e-4</text>
<line class="grid" x1="700.00" y1="470.00" x2="1260.00" y2="470.00" />
<text class="tick" x="656.00" y="474.00">1e-5</text>
<path class="uniform" d="M 700.00,150.00 L 701.12,150.00 L 702.24,150.00 L 703.36,150.00 L 704.48,150.00 L 705.61,150.00 L 706.73,150.00 L 707.85,150.00 L 708.97,150.00 L 710.09,150.00 L 711.21,150.00 L 712.33,150.00 L 713.45,150.00 L 714.57,150.00 L 715.70,150.00 L 716.82,150.00 L 717.94,150.00 L 719.06,150.00 L 720.18,150.00 L 721.30,150.00 L 722.42,150.00 L 723.54,150.00 L 724.66,150.00 L 725.79,150.00 L 726.91,150.00 L 728.03,150.00 L 729.15,150.00 L 730.27,150.00 L 731.39,150.00 L 732.51,150.00 L 733.63,150.00 L 734.75,150.00 L 735.88,150.00 L 737.00,150.00 L 738.12,150.00 L 739.24,150.00 L 740.36,150.00 L 741.48,150.00 L 742.60,150.00 L 743.72,150.00 L 744.84,150.00 L 745.97,150.00 L 747.09,150.00 L 748.21,150.00 L 749.33,150.00 L 750.45,150.00 L 751.57,150.00 L 752.69,150.00 L 753.81,150.00 L 754.93,150.00 L 756.06,150.00 L 757.18,150.00 L 758.30,150.00 L 759.42,150.00 L 760.54,150.00 L 761.66,150.00 L 762.78,150.00 L 763.90,150.00 L 765.03,150.00 L 766.15,150.00 L 767.27,150.00 L 768.39,150.00 L 769.51,150.00 L 770.63,150.00 L 771.75,150.00 L 772.87,150.00 L 773.99,150.00 L 775.12,150.00 L 776.24,150.00 L 777.36,150.00 L 778.48,150.00 L 779.60,150.00 L 780.72,150.00 L 781.84,150.00 L 782.96,150.00 L 784.08,150.00 L 785.21,150.00 L 786.33,150.00 L 787.45,150.00 L 788.57,150.00 L 789.69,150.00 L 790.81,150.00 L 791.93,150.00 L 793.05,150.00 L 794.17,150.00 L 795.30,150.00 L 796.42,150.00 L 797.54,150.00 L 798.66,150.00 L 799.78,150.00 L 800.90,150.00 L 802.02,150.00 L 803.14,150.00 L 804.26,150.00 L 805.39,150.00 L 806.51,150.00 L 807.63,150.00 L 808.75,150.00 L 809.87,150.00 L 810.99,150.00 L 812.11,150.00 L 813.23,150.00 L 814.35,150.00 L 815.48,150.00 L 816.60,150.00 L 817.72,150.00 L 818.84,150.00 L 819.96,150.00 L 821.08,150.00 L 822.20,150.00 L 823.32,150.00 L 824.44,150.00 L 825.57,150.00 L 826.69,150.00 L 827.81,150.00 L 828.93,150.00 L 830.05,150.00 L 831.17,150.00 L 832.29,150.00 L 833.41,150.00 L 834.53,150.00 L 835.66,150.00 L 836.78,150.00 L 837.90,150.00 L 839.02,150.00 L 840.14,150.00 L 841.26,150.00 L 842.38,150.00 L 843.50,150.00 L 844.62,150.00 L 845.75,150.00 L 846.87,150.00 L 847.99,150.00 L 849.11,150.00 L 850.23,150.00 L 851.35,150.00 L 852.47,150.00 L 853.59,150.00 L 854.71,150.00 L 855.84,150.00 L 856.96,150.00 L 858.08,150.00 L 859.20,150.00 L 860.32,150.00 L 861.44,150.00 L 862.56,150.00 L 863.68,150.00 L 864.80,150.00 L 865.93,150.00 L 867.05,150.00 L 868.17,150.00 L 869.29,150.00 L 870.41,150.00 L 871.53,150.00 L 872.65,150.00 L 873.77,150.00 L 874.90,150.00 L 876.02,150.00 L 877.14,150.00 L 878.26,150.00 L 879.38,150.00 L 880.50,150.00 L 881.62,150.00 L 882.74,150.00 L 883.86,150.00 L 884.99,150.00 L 886.11,150.00 L 887.23,150.00 L 888.35,150.00 L 889.47,150.00 L 890.59,150.00 L 891.71,150.00 L 892.83,150.00 L 893.95,150.00 L 895.08,150.00 L 896.20,150.00 L 897.32,150.00 L 898.44,150.00 L 899.56,150.00 L 900.68,150.00 L 901.80,150.00 L 902.92,150.00 L 904.04,150.00 L 905.17,150.00 L 906.29,150.00 L 907.41,150.00 L 908.53,150.00 L 909.65,150.00 L 910.77,150.00 L 911.89,150.00 L 913.01,150.00 L 914.13,150.00 L 915.26,150.00 L 916.38,150.00 L 917.50,150.00 L 918.62,150.00 L 919.74,150.00 L 920.86,150.00 L 921.98,150.00 L 923.10,150.00 L 924.22,150.00 L 925.35,150.00 L 926.47,150.00 L 927.59,150.00 L 928.71,150.00 L 929.83,150.00 L 930.95,150.00 L 932.07,150.00 L 933.19,150.00 L 934.31,150.00 L 935.44,150.00 L 936.56,150.00 L 937.68,150.00 L 938.80,150.00 L 939.92,150.00 L 941.04,150.00 L 942.16,150.00 L 943.28,150.00 L 944.40,150.00 L 945.53,150.00 L 946.65,150.00 L 947.77,150.00 L 948.89,150.00 L 950.01,150.00 L 951.13,150.00 L 952.25,150.00 L 953.37,150.00 L 954.49,150.00 L 955.62,150.00 L 956.74,150.00 L 957.86,150.00 L 958.98,150.00 L 960.10,150.00 L 961.22,150.00 L 962.34,150.00 L 963.46,150.00 L 964.58,150.00 L 965.71,150.00 L 966.83,150.00 L 967.95,150.00 L 969.07,150.00 L 970.19,150.00 L 971.31,150.00 L 972.43,150.00 L 973.55,150.00 L 974.67,150.00 L 975.80,150.00 L 976.92,150.00 L 978.04,150.00 L 979.16,150.00 L 980.28,150.00 L 981.40,150.00 L 982.52,150.00 L 983.64,150.00 L 984.77,150.00 L 985.89,150.00 L 987.01,150.00 L 988.13,150.00 L 989.25,150.00 L 990.37,150.00 L 991.49,150.00 L 992.61,150.00 L 993.73,150.00 L 994.86,150.00 L 995.98,150.00 L 997.10,150.00 L 998.22,150.00 L 999.34,150.00 L 1000.46,150.00 L 1001.58,150.00 L 1002.70,150.00 L 1003.82,150.00 L 1004.95,150.00 L 1006.07,150.00 L 1007.19,150.00 L 1008.31,150.00 L 1009.43,150.00 L 1010.55,150.00 L 1011.67,150.00 L 1012.79,150.00 L 1013.91,150.00 L 1015.04,150.00 L 1016.16,150.00 L 1017.28,150.00 L 1018.40,150.00 L 1019.52,150.00 L 1020.64,150.00 L 1021.76,150.00 L 1022.88,150.00 L 1024.00,150.00 L 1025.13,150.00 L 1026.25,150.00 L 1027.37,150.00 L 1028.49,150.00 L 1029.61,150.00 L 1030.73,150.00 L 1031.85,150.00 L 1032.97,150.00 L 1034.09,150.00 L 1035.22,150.00 L 1036.34,150.00 L 1037.46,150.00 L 1038.58,150.00 L 1039.70,150.00 L 1040.82,150.00 L 1041.94,150.00 L 1043.06,150.00 L 1044.18,150.00 L 1045.31,150.00 L 1046.43,150.00 L 1047.55,150.00 L 1048.67,150.00 L 1049.79,150.00 L 1050.91,150.00 L 1052.03,150.00 L 1053.15,150.00 L 1054.27,150.00 L 1055.40,150.00 L 1056.52,150.00 L 1057.64,150.00 L 1058.76,150.00 L 1059.88,150.00 L 1061.00,150.00 L 1062.12,150.00 L 1063.24,150.00 L 1064.36,150.00 L 1065.49,150.00 L 1066.61,150.00 L 1067.73,150.00 L 1068.85,150.00 L 1069.97,150.00 L 1071.09,150.00 L 1072.21,150.00 L 1073.33,150.00 L 1074.45,150.00 L 1075.58,150.00 L 1076.70,150.00 L 1077.82,150.00 L 1078.94,150.00 L 1080.06,150.00 L 1081.18,150.00 L 1082.30,150.00 L 1083.42,150.00 L 1084.54,150.00 L 1085.67,150.00 L 1086.79,150.00 L 1087.91,150.00 L 1089.03,150.00 L 1090.15,150.00 L 1091.27,150.00 L 1092.39,150.00 L 1093.51,150.00 L 1094.64,150.00 L 1095.76,150.00 L 1096.88,150.00 L 1098.00,150.00 L 1099.12,150.00 L 1100.24,150.00 L 1101.36,150.00 L 1102.48,150.00 L 1103.60,150.00 L 1104.73,150.00 L 1105.85,150.00 L 1106.97,150.00 L 1108.09,150.00 L 1109.21,150.00 L 1110.33,150.00 L 1111.45,150.00 L 1112.57,150.00 L 1113.69,150.00 L 1114.82,150.00 L 1115.94,150.00 L 1117.06,150.00 L 1118.18,150.00 L 1119.30,150.00 L 1120.42,150.00 L 1121.54,150.00 L 1122.66,150.00 L 1123.78,150.00 L 1124.91,150.00 L 1126.03,150.00 L 1127.15,150.00 L 1128.27,150.00 L 1129.39,150.00 L 1130.51,150.00 L 1131.63,150.00 L 1132.75,150.00 L 1133.87,150.00 L 1135.00,150.00 L 1136.12,150.00 L 1137.24,150.00 L 1138.36,150.00 L 1139.48,150.00 L 1140.60,150.00 L 1141.72,150.00 L 1142.84,150.00 L 1143.96,150.00 L 1145.09,150.00 L 1146.21,150.00 L 1147.33,150.00 L 1148.45,150.00 L 1149.57,150.00 L 1150.69,150.00 L 1151.81,150.00 L 1152.93,150.00 L 1154.05,150.00 L 1155.18,150.00 L 1156.30,150.00 L 1157.42,150.00 L 1158.54,150.00 L 1159.66,150.00 L 1160.78,150.00 L 1161.90,150.00 L 1163.02,150.00 L 1164.14,150.00 L 1165.27,150.00 L 1166.39,150.00 L 1167.51,150.00 L 1168.63,150.00 L 1169.75,150.00 L 1170.87,150.00 L 1171.99,150.00 L 1173.11,150.00 L 1174.23,150.00 L 1175.36,150.00 L 1176.48,150.00 L 1177.60,150.00 L 1178.72,150.00 L 1179.84,150.00 L 1180.96,150.00 L 1182.08,150.00 L 1183.20,150.00 L 1184.32,150.00 L 1185.45,150.00 L 1186.57,150.00 L 1187.69,150.00 L 1188.81,150.00 L 1189.93,150.00 L 1191.05,150.00 L 1192.17,150.00 L 1193.29,150.00 L 1194.41,150.00 L 1195.54,150.00 L 1196.66,150.00 L 1197.78,150.00 L 1198.90,150.00 L 1200.02,150.00 L 1201.14,150.00 L 1202.26,150.00 L 1203.38,150.00 L 1204.51,150.00 L 1205.63,150.00 L 1206.75,150.00 L 1207.87,150.00 L 1208.99,150.00 L 1210.11,150.00 L 1211.23,150.00 L 1212.35,150.00 L 1213.47,150.00 L 1214.60,150.00 L 1215.72,150.00 L 1216.84,150.00 L 1217.96,150.00 L 1219.08,150.00 L 1220.20,150.00 L 1221.32,150.00 L 1222.44,150.00 L 1223.56,150.00 L 1224.69,150.00 L 1225.81,150.00 L 1226.93,150.00 L 1228.05,150.00 L 1229.17,150.00 L 1230.29,150.00 L 1231.41,150.00 L 1232.53,150.00 L 1233.65,150.00 L 1234.78,150.00 L 1235.90,150.00 L 1237.02,150.00 L 1238.14,150.00 L 1239.26,150.00 L 1240.38,150.00 L 1241.50,150.00 L 1242.62,150.00 L 1243.74,150.00 L 1244.87,150.00 L 1245.99,150.00 L 1247.11,150.00 L 1248.23,150.00 L 1249.35,150.00 L 1250.47,150.00 L 1251.59,150.00 L 1252.71,150.00 L 1253.83,150.00 L 1254.96,150.00 L 1256.08,150.00 L 1257.20,150.00 L 1258.32,150.00 L 1259.44,150.00" />
<path class="poly" d="M 700.00,150.00 L 701.12,150.08 L 702.24,150.17 L 703.36,150.25 L 704.48,150.34 L 705.61,150.42 L 706.73,150.50 L 707.85,150.59 L 708.97,150.67 L 710.09,150.76 L 711.21,150.84 L 712.33,150.93 L 713.45,151.01 L 714.57,151.10 L 715.70,151.19 L 716.82,151.27 L 717.94,151.36 L 719.06,151.44 L 720.18,151.53 L 721.30,151.62 L 722.42,151.70 L 723.54,151.79 L 724.66,151.88 L 725.79,151.97 L 726.91,152.05 L 728.03,152.14 L 729.15,152.23 L 730.27,152.32 L 731.39,152.41 L 732.51,152.49 L 733.63,152.58 L 734.75,152.67 L 735.88,152.76 L 737.00,152.85 L 738.12,152.94 L 739.24,153.03 L 740.36,153.12 L 741.48,153.21 L 742.60,153.30 L 743.72,153.39 L 744.84,153.48 L 745.97,153.57 L 747.09,153.66 L 748.21,153.75 L 749.33,153.84 L 750.45,153.94 L 751.57,154.03 L 752.69,154.12 L 753.81,154.21 L 754.93,154.30 L 756.06,154.40 L 757.18,154.49 L 758.30,154.58 L 759.42,154.68 L 760.54,154.77 L 761.66,154.86 L 762.78,154.96 L 763.90,155.05 L 765.03,155.15 L 766.15,155.24 L 767.27,155.34 L 768.39,155.43 L 769.51,155.53 L 770.63,155.62 L 771.75,155.72 L 772.87,155.81 L 773.99,155.91 L 775.12,156.00 L 776.24,156.10 L 777.36,156.20 L 778.48,156.29 L 779.60,156.39 L 780.72,156.49 L 781.84,156.59 L 782.96,156.69 L 784.08,156.78 L 785.21,156.88 L 786.33,156.98 L 787.45,157.08 L 788.57,157.18 L 789.69,157.28 L 790.81,157.38 L 791.93,157.48 L 793.05,157.58 L 794.17,157.68 L 795.30,157.78 L 796.42,157.88 L 797.54,157.98 L 798.66,158.08 L 799.78,158.18 L 800.90,158.28 L 802.02,158.38 L 803.14,158.49 L 804.26,158.59 L 805.39,158.69 L 806.51,158.80 L 807.63,158.90 L 808.75,159.00 L 809.87,159.11 L 810.99,159.21 L 812.11,159.31 L 813.23,159.42 L 814.35,159.52 L 815.48,159.63 L 816.60,159.73 L 817.72,159.84 L 818.84,159.94 L 819.96,160.05 L 821.08,160.16 L 822.20,160.26 L 823.32,160.37 L 824.44,160.48 L 825.57,160.59 L 826.69,160.69 L 827.81,160.80 L 828.93,160.91 L 830.05,161.02 L 831.17,161.13 L 832.29,161.24 L 833.41,161.35 L 834.53,161.46 L 835.66,161.57 L 836.78,161.68 L 837.90,161.79 L 839.02,161.90 L 840.14,162.01 L 841.26,162.12 L 842.38,162.23 L 843.50,162.34 L 844.62,162.46 L 845.75,162.57 L 846.87,162.68 L 847.99,162.79 L 849.11,162.91 L 850.23,163.02 L 851.35,163.14 L 852.47,163.25 L 853.59,163.37 L 854.71,163.48 L 855.84,163.60 L 856.96,163.71 L 858.08,163.83 L 859.20,163.94 L 860.32,164.06 L 861.44,164.18 L 862.56,164.30 L 863.68,164.41 L 864.80,164.53 L 865.93,164.65 L 867.05,164.77 L 868.17,164.89 L 869.29,165.01 L 870.41,165.13 L 871.53,165.25 L 872.65,165.37 L 873.77,165.49 L 874.90,165.61 L 876.02,165.73 L 877.14,165.85 L 878.26,165.98 L 879.38,166.10 L 880.50,166.22 L 881.62,166.35 L 882.74,166.47 L 883.86,166.59 L 884.99,166.72 L 886.11,166.84 L 887.23,166.97 L 888.35,167.09 L 889.47,167.22 L 890.59,167.35 L 891.71,167.47 L 892.83,167.60 L 893.95,167.73 L 895.08,167.85 L 896.20,167.98 L 897.32,168.11 L 898.44,168.24 L 899.56,168.37 L 900.68,168.50 L 901.80,168.63 L 902.92,168.76 L 904.04,168.89 L 905.17,169.02 L 906.29,169.16 L 907.41,169.29 L 908.53,169.42 L 909.65,169.55 L 910.77,169.69 L 911.89,169.82 L 913.01,169.96 L 914.13,170.09 L 915.26,170.23 L 916.38,170.36 L 917.50,170.50 L 918.62,170.64 L 919.74,170.77 L 920.86,170.91 L 921.98,171.05 L 923.10,171.19 L 924.22,171.33 L 925.35,171.46 L 926.47,171.60 L 927.59,171.75 L 928.71,171.89 L 929.83,172.03 L 930.95,172.17 L 932.07,172.31 L 933.19,172.45 L 934.31,172.60 L 935.44,172.74 L 936.56,172.89 L 937.68,173.03 L 938.80,173.18 L 939.92,173.32 L 941.04,173.47 L 942.16,173.61 L 943.28,173.76 L 944.40,173.91 L 945.53,174.06 L 946.65,174.21 L 947.77,174.36 L 948.89,174.51 L 950.01,174.66 L 951.13,174.81 L 952.25,174.96 L 953.37,175.11 L 954.49,175.26 L 955.62,175.42 L 956.74,175.57 L 957.86,175.73 L 958.98,175.88 L 960.10,176.04 L 961.22,176.19 L 962.34,176.35 L 963.46,176.51 L 964.58,176.66 L 965.71,176.82 L 966.83,176.98 L 967.95,177.14 L 969.07,177.30 L 970.19,177.46 L 971.31,177.62 L 972.43,177.79 L 973.55,177.95 L 974.67,178.11 L 975.80,178.28 L 976.92,178.44 L 978.04,178.61 L 979.16,178.77 L 980.28,178.94 L 981.40,179.11 L 982.52,179.28 L 983.64,179.45 L 984.77,179.61 L 985.89,179.78 L 987.01,179.96 L 988.13,180.13 L 989.25,180.30 L 990.37,180.47 L 991.49,180.65 L 992.61,180.82 L 993.73,181.00 L 994.86,181.17 L 995.98,181.35 L 997.10,181.53 L 998.22,181.70 L 999.34,181.88 L 1000.46,182.06 L 1001.58,182.24 L 1002.70,182.42 L 1003.82,182.61 L 1004.95,182.79 L 1006.07,182.97 L 1007.19,183.16 L 1008.31,183.34 L 1009.43,183.53 L 1010.55,183.72 L 1011.67,183.90 L 1012.79,184.09 L 1013.91,184.28 L 1015.04,184.47 L 1016.16,184.66 L 1017.28,184.86 L 1018.40,185.05 L 1019.52,185.24 L 1020.64,185.44 L 1021.76,185.63 L 1022.88,185.83 L 1024.00,186.03 L 1025.13,186.23 L 1026.25,186.43 L 1027.37,186.63 L 1028.49,186.83 L 1029.61,187.03 L 1030.73,187.23 L 1031.85,187.44 L 1032.97,187.64 L 1034.09,187.85 L 1035.22,188.06 L 1036.34,188.26 L 1037.46,188.47 L 1038.58,188.69 L 1039.70,188.90 L 1040.82,189.11 L 1041.94,189.32 L 1043.06,189.54 L 1044.18,189.75 L 1045.31,189.97 L 1046.43,190.19 L 1047.55,190.41 L 1048.67,190.63 L 1049.79,190.85 L 1050.91,191.07 L 1052.03,191.30 L 1053.15,191.52 L 1054.27,191.75 L 1055.40,191.98 L 1056.52,192.21 L 1057.64,192.44 L 1058.76,192.67 L 1059.88,192.90 L 1061.00,193.14 L 1062.12,193.37 L 1063.24,193.61 L 1064.36,193.85 L 1065.49,194.09 L 1066.61,194.33 L 1067.73,194.57 L 1068.85,194.81 L 1069.97,195.06 L 1071.09,195.31 L 1072.21,195.55 L 1073.33,195.80 L 1074.45,196.05 L 1075.58,196.31 L 1076.70,196.56 L 1077.82,196.82 L 1078.94,197.07 L 1080.06,197.33 L 1081.18,197.59 L 1082.30,197.86 L 1083.42,198.12 L 1084.54,198.39 L 1085.67,198.65 L 1086.79,198.92 L 1087.91,199.19 L 1089.03,199.47 L 1090.15,199.74 L 1091.27,200.02 L 1092.39,200.29 L 1093.51,200.57 L 1094.64,200.86 L 1095.76,201.14 L 1096.88,201.42 L 1098.00,201.71 L 1099.12,202.00 L 1100.24,202.29 L 1101.36,202.59 L 1102.48,202.88 L 1103.60,203.18 L 1104.73,203.48 L 1105.85,203.78 L 1106.97,204.09 L 1108.09,204.39 L 1109.21,204.70 L 1110.33,205.01 L 1111.45,205.33 L 1112.57,205.64 L 1113.69,205.96 L 1114.82,206.28 L 1115.94,206.60 L 1117.06,206.93 L 1118.18,207.26 L 1119.30,207.59 L 1120.42,207.92 L 1121.54,208.26 L 1122.66,208.60 L 1123.78,208.94 L 1124.91,209.28 L 1126.03,209.63 L 1127.15,209.98 L 1128.27,210.34 L 1129.39,210.69 L 1130.51,211.05 L 1131.63,211.41 L 1132.75,211.78 L 1133.87,212.15 L 1135.00,212.52 L 1136.12,212.90 L 1137.24,213.28 L 1138.36,213.66 L 1139.48,214.04 L 1140.60,214.43 L 1141.72,214.83 L 1142.84,215.22 L 1143.96,215.63 L 1145.09,216.03 L 1146.21,216.44 L 1147.33,216.85 L 1148.45,217.27 L 1149.57,217.69 L 1150.69,218.12 L 1151.81,218.54 L 1152.93,218.98 L 1154.05,219.42 L 1155.18,219.86 L 1156.30,220.31 L 1157.42,220.76 L 1158.54,221.22 L 1159.66,221.68 L 1160.78,222.15 L 1161.90,222.63 L 1163.02,223.11 L 1164.14,223.59 L 1165.27,224.08 L 1166.39,224.58 L 1167.51,225.08 L 1168.63,225.59 L 1169.75,226.10 L 1170.87,226.62 L 1171.99,227.15 L 1173.11,227.69 L 1174.23,228.23 L 1175.36,228.78 L 1176.48,229.33 L 1177.60,229.90 L 1178.72,230.47 L 1179.84,231.05 L 1180.96,231.63 L 1182.08,232.23 L 1183.20,232.83 L 1184.32,233.45 L 1185.45,234.07 L 1186.57,234.70 L 1187.69,235.34 L 1188.81,235.99 L 1189.93,236.66 L 1191.05,237.33 L 1192.17,238.01 L 1193.29,238.71 L 1194.41,239.41 L 1195.54,240.13 L 1196.66,240.86 L 1197.78,241.61 L 1198.90,242.37 L 1200.02,243.14 L 1201.14,243.92 L 1202.26,244.73 L 1203.38,245.54 L 1204.51,246.38 L 1205.63,247.23 L 1206.75,248.10 L 1207.87,248.98 L 1208.99,249.89 L 1210.11,250.82 L 1211.23,251.76 L 1212.35,252.73 L 1213.47,253.73 L 1214.60,254.74 L 1215.72,255.79 L 1216.84,256.86 L 1217.96,257.95 L 1219.08,259.08 L 1220.20,260.24 L 1221.32,261.43 L 1222.44,262.66 L 1223.56,263.92 L 1224.69,265.22 L 1225.81,266.57 L 1226.93,267.96 L 1228.05,269.39 L 1229.17,270.88 L 1230.29,272.43 L 1231.41,274.03 L 1232.53,275.70 L 1233.65,277.44 L 1234.78,279.25 L 1235.90,281.15 L 1237.02,283.13 L 1238.14,285.22 L 1239.26,287.41 L 1240.38,289.73 L 1241.50,292.18 L 1242.62,294.79 L 1243.74,297.57 L 1244.87,300.55 L 1245.99,303.76 L 1247.11,307.23 L 1248.23,311.03 L 1249.35,315.20 L 1250.47,319.84 L 1251.59,325.06 L 1252.71,331.02 L 1253.83,337.99 L 1254.96,346.36 L 1256.08,356.83 L 1257.20,370.87 L 1258.32,392.17 L 1259.44,438.00" />
<text class="note" x="700.00" y="528.00">The n=1 family must dilute as lambda approaches 1 to keep M and K fixed.</text>
<rect class="axis" x="60.00" y="560.00" width="560.00" height="320.00" />
<text class="label" x="60.00" y="550.00">Central pressure ratio P_c(lambda) / P_c(0)</text>
<line class="grid" x1="60.00" y1="560.00" x2="60.00" y2="880.00" />
<text class="tick" x="48.00" y="898.00">0</text>
<line class="grid" x1="200.00" y1="560.00" x2="200.00" y2="880.00" />
<text class="tick" x="188.00" y="898.00">0.25</text>
<line class="grid" x1="340.00" y1="560.00" x2="340.00" y2="880.00" />
<text class="tick" x="328.00" y="898.00">0.5</text>
<line class="grid" x1="480.00" y1="560.00" x2="480.00" y2="880.00" />
<text class="tick" x="468.00" y="898.00">0.75</text>
<line class="grid" x1="564.00" y1="560.00" x2="564.00" y2="880.00" />
<text class="tick" x="552.00" y="898.00">0.9</text>
<line class="grid" x1="614.40" y1="560.00" x2="614.40" y2="880.00" />
<text class="tick" x="602.40" y="898.00">0.99</text>
<text class="label" x="316.00" y="918.00">lambda</text>
<line class="grid" x1="60.00" y1="560.00" x2="620.00" y2="560.00" />
<text class="tick" x="16.00" y="564.00">1</text>
<line class="grid" x1="60.00" y1="631.11" x2="620.00" y2="631.11" />
<text class="tick" x="16.00" y="635.11">1e-2</text>
<line class="grid" x1="60.00" y1="702.22" x2="620.00" y2="702.22" />
<text class="tick" x="16.00" y="706.22">1e-4</text>
<line class="grid" x1="60.00" y1="773.33" x2="620.00" y2="773.33" />
<text class="tick" x="16.00" y="777.33">1e-6</text>
<line class="grid" x1="60.00" y1="844.44" x2="620.00" y2="844.44" />
<text class="tick" x="16.00" y="848.44">1e-8</text>
<path class="uniform" d="M 60.00,560.00 L 61.12,560.03 L 62.24,560.06 L 63.36,560.09 L 64.48,560.12 L 65.61,560.16 L 66.73,560.19 L 67.85,560.22 L 68.97,560.25 L 70.09,560.28 L 71.21,560.31 L 72.33,560.34 L 73.45,560.38 L 74.57,560.41 L 75.70,560.44 L 76.82,560.47 L 77.94,560.50 L 79.06,560.53 L 80.18,560.57 L 81.30,560.60 L 82.42,560.63 L 83.54,560.66 L 84.66,560.70 L 85.79,560.73 L 86.91,560.76 L 88.03,560.79 L 89.15,560.83 L 90.27,560.86 L 91.39,560.89 L 92.51,560.92 L 93.63,560.96 L 94.75,560.99 L 95.88,561.02 L 97.00,561.06 L 98.12,561.09 L 99.24,561.12 L 100.36,561.16 L 101.48,561.19 L 102.60,561.22 L 103.72,561.26 L 104.84,561.29 L 105.97,561.32 L 107.09,561.36 L 108.21,561.39 L 109.33,561.42 L 110.45,561.46 L 111.57,561.49 L 112.69,561.53 L 113.81,561.56 L 114.93,561.59 L 116.06,561.63 L 117.18,561.66 L 118.30,561.70 L 119.42,561.73 L 120.54,561.77 L 121.66,561.80 L 122.78,561.84 L 123.90,561.87 L 125.03,561.91 L 126.15,561.94 L 127.27,561.98 L 128.39,562.01 L 129.51,562.05 L 130.63,562.08 L 131.75,562.12 L 132.87,562.15 L 133.99,562.19 L 135.12,562.22 L 136.24,562.26 L 137.36,562.30 L 138.48,562.33 L 139.60,562.37 L 140.72,562.40 L 141.84,562.44 L 142.96,562.48 L 144.08,562.51 L 145.21,562.55 L 146.33,562.59 L 147.45,562.62 L 148.57,562.66 L 149.69,562.70 L 150.81,562.73 L 151.93,562.77 L 153.05,562.81 L 154.17,562.84 L 155.30,562.88 L 156.42,562.92 L 157.54,562.96 L 158.66,562.99 L 159.78,563.03 L 160.90,563.07 L 162.02,563.11 L 163.14,563.14 L 164.26,563.18 L 165.39,563.22 L 166.51,563.26 L 167.63,563.30 L 168.75,563.33 L 169.87,563.37 L 170.99,563.41 L 172.11,563.45 L 173.23,563.49 L 174.35,563.53 L 175.48,563.57 L 176.60,563.60 L 177.72,563.64 L 178.84,563.68 L 179.96,563.72 L 181.08,563.76 L 182.20,563.80 L 183.32,563.84 L 184.44,563.88 L 185.57,563.92 L 186.69,563.96 L 187.81,564.00 L 188.93,564.04 L 190.05,564.08 L 191.17,564.12 L 192.29,564.16 L 193.41,564.20 L 194.53,564.24 L 195.66,564.28 L 196.78,564.32 L 197.90,564.37 L 199.02,564.41 L 200.14,564.45 L 201.26,564.49 L 202.38,564.53 L 203.50,564.57 L 204.62,564.61 L 205.75,564.65 L 206.87,564.70 L 207.99,564.74 L 209.11,564.78 L 210.23,564.82 L 211.35,564.87 L 212.47,564.91 L 213.59,564.95 L 214.71,564.99 L 215.84,565.04 L 216.96,565.08 L 218.08,565.12 L 219.20,565.16 L 220.32,565.21 L 221.44,565.25 L 222.56,565.29 L 223.68,565.34 L 224.80,565.38 L 225.93,565.43 L 227.05,565.47 L 228.17,565.51 L 229.29,565.56 L 230.41,565.60 L 231.53,565.65 L 232.65,565.69 L 233.77,565.74 L 234.90,565.78 L 236.02,565.83 L 237.14,565.87 L 238.26,565.92 L 239.38,565.96 L 240.50,566.01 L 241.62,566.05 L 242.74,566.10 L 243.86,566.15 L 244.99,566.19 L 246.11,566.24 L 247.23,566.28 L 248.35,566.33 L 249.47,566.38 L 250.59,566.42 L 251.71,566.47 L 252.83,566.52 L 253.95,566.57 L 255.08,566.61 L 256.20,566.66 L 257.32,566.71 L 258.44,566.76 L 259.56,566.80 L 260.68,566.85 L 261.80,566.90 L 262.92,566.95 L 264.04,567.00 L 265.17,567.05 L 266.29,567.09 L 267.41,567.14 L 268.53,567.19 L 269.65,567.24 L 270.77,567.29 L 271.89,567.34 L 273.01,567.39 L 274.13,567.44 L 275.26,567.49 L 276.38,567.54 L 277.50,567.59 L 278.62,567.64 L 279.74,567.69 L 280.86,567.74 L 281.98,567.80 L 283.10,567.85 L 284.22,567.90 L 285.35,567.95 L 286.47,568.00 L 287.59,568.05 L 288.71,568.11 L 289.83,568.16 L 290.95,568.21 L 292.07,568.26 L 293.19,568.32 L 294.31,568.37 L 295.44,568.42 L 296.56,568.48 L 297.68,568.53 L 298.80,568.58 L 299.92,568.64 L 301.04,568.69 L 302.16,568.75 L 303.28,568.80 L 304.40,568.86 L 305.53,568.91 L 306.65,568.97 L 307.77,569.02 L 308.89,569.08 L 310.01,569.13 L 311.13,569.19 L 312.25,569.24 L 313.37,569.30 L 314.49,569.36 L 315.62,569.41 L 316.74,569.47 L 317.86,569.53 L 318.98,569.59 L 320.10,569.64 L 321.22,569.70 L 322.34,569.76 L 323.46,569.82 L 324.58,569.88 L 325.71,569.93 L 326.83,569.99 L 327.95,570.05 L 329.07,570.11 L 330.19,570.17 L 331.31,570.23 L 332.43,570.29 L 333.55,570.35 L 334.67,570.41 L 335.80,570.47 L 336.92,570.53 L 338.04,570.60 L 339.16,570.66 L 340.28,570.72 L 341.40,570.78 L 342.52,570.84 L 343.64,570.91 L 344.77,570.97 L 345.89,571.03 L 347.01,571.09 L 348.13,571.16 L 349.25,571.22 L 350.37,571.29 L 351.49,571.35 L 352.61,571.42 L 353.73,571.48 L 354.86,571.55 L 355.98,571.61 L 357.10,571.68 L 358.22,571.74 L 359.34,571.81 L 360.46,571.88 L 361.58,571.94 L 362.70,572.01 L 363.82,572.08 L 364.95,572.14 L 366.07,572.21 L 367.19,572.28 L 368.31,572.35 L 369.43,572.42 L 370.55,572.49 L 371.67,572.56 L 372.79,572.63 L 373.91,572.70 L 375.04,572.77 L 376.16,572.84 L 377.28,572.91 L 378.40,572.98 L 379.52,573.05 L 380.64,573.12 L 381.76,573.20 L 382.88,573.27 L 384.00,573.34 L 385.13,573.42 L 386.25,573.49 L 387.37,573.57 L 388.49,573.64 L 389.61,573.71 L 390.73,573.79 L 391.85,573.87 L 392.97,573.94 L 394.09,574.02 L 395.22,574.09 L 396.34,574.17 L 397.46,574.25 L 398.58,574.33 L 399.70,574.41 L 400.82,574.48 L 401.94,574.56 L 403.06,574.64 L 404.18,574.72 L 405.31,574.80 L 406.43,574.89 L 407.55,574.97 L 408.67,575.05 L 409.79,575.13 L 410.91,575.21 L 412.03,575.30 L 413.15,575.38 L 414.27,575.46 L 415.40,575.55 L 416.52,575.63 L 417.64,575.72 L 418.76,575.80 L 419.88,575.89 L 421.00,575.98 L 422.12,576.06 L 423.24,576.15 L 424.36,576.24 L 425.49,576.33 L 426.61,576.42 L 427.73,576.51 L 428.85,576.60 L 429.97,576.69 L 431.09,576.78 L 432.21,576.87 L 433.33,576.96 L 434.45,577.06 L 435.58,577.15 L 436.70,577.25 L 437.82,577.34 L 438.94,577.44 L 440.06,577.53 L 441.18,577.63 L 442.30,577.72 L 443.42,577.82 L 444.54,577.92 L 445.67,578.02 L 446.79,578.12 L 447.91,578.22 L 449.03,578.32 L 450.15,578.42 L 451.27,578.52 L 452.39,578.63 L 453.51,578.73 L 454.64,578.84 L 455.76,578.94 L 456.88,579.05 L 458.00,579.15 L 459.12,579.26 L 460.24,579.37 L 461.36,579.48 L 462.48,579.59 L 463.60,579.70 L 464.73,579.81 L 465.85,579.92 L 466.97,580.03 L 468.09,580.15 L 469.21,580.26 L 470.33,580.38 L 471.45,580.49 L 472.57,580.61 L 473.69,580.73 L 474.82,580.85 L 475.94,580.96 L 477.06,581.09 L 478.18,581.21 L 479.30,581.33 L 480.42,581.45 L 481.54,581.58 L 482.66,581.70 L 483.78,581.83 L 484.91,581.96 L 486.03,582.09 L 487.15,582.22 L 488.27,582.35 L 489.39,582.48 L 490.51,582.61 L 491.63,582.75 L 492.75,582.88 L 493.87,583.02 L 495.00,583.16 L 496.12,583.30 L 497.24,583.44 L 498.36,583.58 L 499.48,583.72 L 500.60,583.86 L 501.72,584.01 L 502.84,584.16 L 503.96,584.31 L 505.09,584.46 L 506.21,584.61 L 507.33,584.76 L 508.45,584.91 L 509.57,585.07 L 510.69,585.23 L 511.81,585.39 L 512.93,585.55 L 514.05,585.71 L 515.18,585.87 L 516.30,586.04 L 517.42,586.21 L 518.54,586.38 L 519.66,586.55 L 520.78,586.72 L 521.90,586.90 L 523.02,587.08 L 524.14,587.26 L 525.27,587.44 L 526.39,587.62 L 527.51,587.81 L 528.63,588.00 L 529.75,588.19 L 530.87,588.38 L 531.99,588.57 L 533.11,588.77 L 534.23,588.97 L 535.36,589.18 L 536.48,589.38 L 537.60,589.59 L 538.72,589.80 L 539.84,590.02 L 540.96,590.23 L 542.08,590.46 L 543.20,590.68 L 544.32,590.91 L 545.45,591.14 L 546.57,591.37 L 547.69,591.61 L 548.81,591.85 L 549.93,592.09 L 551.05,592.34 L 552.17,592.60 L 553.29,592.85 L 554.41,593.12 L 555.54,593.38 L 556.66,593.65 L 557.78,593.93 L 558.90,594.21 L 560.02,594.50 L 561.14,594.79 L 562.26,595.08 L 563.38,595.39 L 564.51,595.70 L 565.63,596.01 L 566.75,596.33 L 567.87,596.66 L 568.99,597.00 L 570.11,597.34 L 571.23,597.69 L 572.35,598.05 L 573.47,598.42 L 574.60,598.79 L 575.72,599.18 L 576.84,599.58 L 577.96,599.98 L 579.08,600.40 L 580.20,600.83 L 581.32,601.27 L 582.44,601.72 L 583.56,602.19 L 584.69,602.67 L 585.81,603.17 L 586.93,603.69 L 588.05,604.22 L 589.17,604.77 L 590.29,605.34 L 591.41,605.94 L 592.53,606.56 L 593.65,607.20 L 594.78,607.87 L 595.90,608.57 L 597.02,609.31 L 598.14,610.08 L 599.26,610.89 L 600.38,611.75 L 601.50,612.66 L 602.62,613.63 L 603.74,614.66 L 604.87,615.76 L 605.99,616.95 L 607.11,618.23 L 608.23,619.64 L 609.35,621.19 L 610.47,622.90 L 611.59,624.84 L 612.71,627.05 L 613.83,629.63 L 614.96,632.72 L 616.08,636.61 L 617.20,641.80 L 618.32,649.69 L 619.44,666.67" />
<path class="poly" d="M 60.00,560.00 L 61.12,560.09 L 62.24,560.19 L 63.36,560.28 L 64.48,560.37 L 65.61,560.47 L 66.73,560.56 L 67.85,560.65 L 68.97,560.75 L 70.09,560.84 L 71.21,560.94 L 72.33,561.03 L 73.45,561.13 L 74.57,561.22 L 75.70,561.32 L 76.82,561.41 L 77.94,561.51 L 79.06,561.60 L 80.18,561.70 L 81.30,561.80 L 82.42,561.89 L 83.54,561.99 L 84.66,562.09 L 85.79,562.18 L 86.91,562.28 L 88.03,562.38 L 89.15,562.48 L 90.27,562.57 L 91.39,562.67 L 92.51,562.77 L 93.63,562.87 L 94.75,562.97 L 95.88,563.07 L 97.00,563.17 L 98.12,563.27 L 99.24,563.37 L 100.36,563.47 L 101.48,563.57 L 102.60,563.67 L 103.72,563.77 L 104.84,563.87 L 105.97,563.97 L 107.09,564.07 L 108.21,564.17 L 109.33,564.27 L 110.45,564.37 L 111.57,564.48 L 112.69,564.58 L 113.81,564.68 L 114.93,564.78 L 116.06,564.89 L 117.18,564.99 L 118.30,565.09 L 119.42,565.20 L 120.54,565.30 L 121.66,565.40 L 122.78,565.51 L 123.90,565.61 L 125.03,565.72 L 126.15,565.82 L 127.27,565.93 L 128.39,566.03 L 129.51,566.14 L 130.63,566.25 L 131.75,566.35 L 132.87,566.46 L 133.99,566.56 L 135.12,566.67 L 136.24,566.78 L 137.36,566.89 L 138.48,566.99 L 139.60,567.10 L 140.72,567.21 L 141.84,567.32 L 142.96,567.43 L 144.08,567.54 L 145.21,567.65 L 146.33,567.76 L 147.45,567.87 L 148.57,567.98 L 149.69,568.09 L 150.81,568.20 L 151.93,568.31 L 153.05,568.42 L 154.17,568.53 L 155.30,568.64 L 156.42,568.75 L 157.54,568.87 L 158.66,568.98 L 159.78,569.09 L 160.90,569.20 L 162.02,569.32 L 163.14,569.43 L 164.26,569.54 L 165.39,569.66 L 166.51,569.77 L 167.63,569.89 L 168.75,570.00 L 169.87,570.12 L 170.99,570.23 L 172.11,570.35 L 173.23,570.46 L 174.35,570.58 L 175.48,570.70 L 176.60,570.81 L 177.72,570.93 L 178.84,571.05 L 179.96,571.17 L 181.08,571.29 L 182.20,571.40 L 183.32,571.52 L 184.44,571.64 L 185.57,571.76 L 186.69,571.88 L 187.81,572.00 L 188.93,572.12 L 190.05,572.24 L 191.17,572.36 L 192.29,572.48 L 193.41,572.61 L 194.53,572.73 L 195.66,572.85 L 196.78,572.97 L 197.90,573.10 L 199.02,573.22 L 200.14,573.34 L 201.26,573.47 L 202.38,573.59 L 203.50,573.71 L 204.62,573.84 L 205.75,573.96 L 206.87,574.09 L 207.99,574.22 L 209.11,574.34 L 210.23,574.47 L 211.35,574.60 L 212.47,574.72 L 213.59,574.85 L 214.71,574.98 L 215.84,575.11 L 216.96,575.24 L 218.08,575.36 L 219.20,575.49 L 220.32,575.62 L 221.44,575.75 L 222.56,575.88 L 223.68,576.02 L 224.80,576.15 L 225.93,576.28 L 227.05,576.41 L 228.17,576.54 L 229.29,576.68 L 230.41,576.81 L 231.53,576.94 L 232.65,577.08 L 233.77,577.21 L 234.90,577.34 L 236.02,577.48 L 237.14,577.62 L 238.26,577.75 L 239.38,577.89 L 240.50,578.02 L 241.62,578.16 L 242.74,578.30 L 243.86,578.44 L 244.99,578.57 L 246.11,578.71 L 247.23,578.85 L 248.35,578.99 L 249.47,579.13 L 250.59,579.27 L 251.71,579.41 L 252.83,579.55 L 253.95,579.70 L 255.08,579.84 L 256.20,579.98 L 257.32,580.12 L 258.44,580.27 L 259.56,580.41 L 260.68,580.56 L 261.80,580.70 L 262.92,580.85 L 264.04,580.99 L 265.17,581.14 L 266.29,581.28 L 267.41,581.43 L 268.53,581.58 L 269.65,581.73 L 270.77,581.87 L 271.89,582.02 L 273.01,582.17 L 274.13,582.32 L 275.26,582.47 L 276.38,582.62 L 277.50,582.78 L 278.62,582.93 L 279.74,583.08 L 280.86,583.23 L 281.98,583.39 L 283.10,583.54 L 284.22,583.69 L 285.35,583.85 L 286.47,584.01 L 287.59,584.16 L 288.71,584.32 L 289.83,584.47 L 290.95,584.63 L 292.07,584.79 L 293.19,584.95 L 294.31,585.11 L 295.44,585.27 L 296.56,585.43 L 297.68,585.59 L 298.80,585.75 L 299.92,585.91 L 301.04,586.08 L 302.16,586.24 L 303.28,586.40 L 304.40,586.57 L 305.53,586.73 L 306.65,586.90 L 307.77,587.06 L 308.89,587.23 L 310.01,587.40 L 311.13,587.56 L 312.25,587.73 L 313.37,587.90 L 314.49,588.07 L 315.62,588.24 L 316.74,588.41 L 317.86,588.58 L 318.98,588.76 L 320.10,588.93 L 321.22,589.10 L 322.34,589.28 L 323.46,589.45 L 324.58,589.63 L 325.71,589.80 L 326.83,589.98 L 327.95,590.16 L 329.07,590.34 L 330.19,590.51 L 331.31,590.69 L 332.43,590.87 L 333.55,591.06 L 334.67,591.24 L 335.80,591.42 L 336.92,591.60 L 338.04,591.79 L 339.16,591.97 L 340.28,592.16 L 341.40,592.34 L 342.52,592.53 L 343.64,592.72 L 344.77,592.91 L 345.89,593.09 L 347.01,593.28 L 348.13,593.47 L 349.25,593.67 L 350.37,593.86 L 351.49,594.05 L 352.61,594.25 L 353.73,594.44 L 354.86,594.64 L 355.98,594.83 L 357.10,595.03 L 358.22,595.23 L 359.34,595.43 L 360.46,595.63 L 361.58,595.83 L 362.70,596.03 L 363.82,596.23 L 364.95,596.43 L 366.07,596.64 L 367.19,596.84 L 368.31,597.05 L 369.43,597.25 L 370.55,597.46 L 371.67,597.67 L 372.79,597.88 L 373.91,598.09 L 375.04,598.30 L 376.16,598.51 L 377.28,598.73 L 378.40,598.94 L 379.52,599.16 L 380.64,599.37 L 381.76,599.59 L 382.88,599.81 L 384.00,600.03 L 385.13,600.25 L 386.25,600.47 L 387.37,600.70 L 388.49,600.92 L 389.61,601.14 L 390.73,601.37 L 391.85,601.60 L 392.97,601.83 L 394.09,602.05 L 395.22,602.28 L 396.34,602.52 L 397.46,602.75 L 398.58,602.98 L 399.70,603.22 L 400.82,603.45 L 401.94,603.69 L 403.06,603.93 L 404.18,604.17 L 405.31,604.41 L 406.43,604.66 L 407.55,604.90 L 408.67,605.14 L 409.79,605.39 L 410.91,605.64 L 412.03,605.89 L 413.15,606.14 L 414.27,606.39 L 415.40,606.64 L 416.52,606.90 L 417.64,607.15 L 418.76,607.41 L 419.88,607.67 L 421.00,607.93 L 422.12,608.19 L 423.24,608.45 L 424.36,608.72 L 425.49,608.99 L 426.61,609.25 L 427.73,609.52 L 428.85,609.79 L 429.97,610.07 L 431.09,610.34 L 432.21,610.62 L 433.33,610.89 L 434.45,611.17 L 435.58,611.45 L 436.70,611.74 L 437.82,612.02 L 438.94,612.31 L 440.06,612.59 L 441.18,612.88 L 442.30,613.17 L 443.42,613.47 L 444.54,613.76 L 445.67,614.06 L 446.79,614.36 L 447.91,614.66 L 449.03,614.96 L 450.15,615.27 L 451.27,615.57 L 452.39,615.88 L 453.51,616.19 L 454.64,616.51 L 455.76,616.82 L 456.88,617.14 L 458.00,617.46 L 459.12,617.78 L 460.24,618.10 L 461.36,618.43 L 462.48,618.76 L 463.60,619.09 L 464.73,619.42 L 465.85,619.76 L 466.97,620.10 L 468.09,620.44 L 469.21,620.78 L 470.33,621.13 L 471.45,621.47 L 472.57,621.83 L 473.69,622.18 L 474.82,622.54 L 475.94,622.89 L 477.06,623.26 L 478.18,623.62 L 479.30,623.99 L 480.42,624.36 L 481.54,624.73 L 482.66,625.11 L 483.78,625.49 L 484.91,625.87 L 486.03,626.26 L 487.15,626.65 L 488.27,627.04 L 489.39,627.44 L 490.51,627.84 L 491.63,628.24 L 492.75,628.64 L 493.87,629.05 L 495.00,629.47 L 496.12,629.89 L 497.24,630.31 L 498.36,630.73 L 499.48,631.16 L 500.60,631.59 L 501.72,632.03 L 502.84,632.47 L 503.96,632.92 L 505.09,633.37 L 506.21,633.82 L 507.33,634.28 L 508.45,634.74 L 509.57,635.21 L 510.69,635.68 L 511.81,636.16 L 512.93,636.64 L 514.05,637.13 L 515.18,637.62 L 516.30,638.12 L 517.42,638.63 L 518.54,639.13 L 519.66,639.65 L 520.78,640.17 L 521.90,640.70 L 523.02,641.23 L 524.14,641.77 L 525.27,642.31 L 526.39,642.86 L 527.51,643.42 L 528.63,643.99 L 529.75,644.56 L 530.87,645.14 L 531.99,645.72 L 533.11,646.32 L 534.23,646.92 L 535.36,647.53 L 536.48,648.15 L 537.60,648.77 L 538.72,649.41 L 539.84,650.05 L 540.96,650.70 L 542.08,651.37 L 543.20,652.04 L 544.32,652.72 L 545.45,653.41 L 546.57,654.11 L 547.69,654.82 L 548.81,655.55 L 549.93,656.28 L 551.05,657.03 L 552.17,657.79 L 553.29,658.56 L 554.41,659.35 L 555.54,660.15 L 556.66,660.96 L 557.78,661.79 L 558.90,662.63 L 560.02,663.49 L 561.14,664.36 L 562.26,665.25 L 563.38,666.16 L 564.51,667.09 L 565.63,668.03 L 566.75,669.00 L 567.87,669.98 L 568.99,670.99 L 570.11,672.02 L 571.23,673.07 L 572.35,674.15 L 573.47,675.25 L 574.60,676.38 L 575.72,677.54 L 576.84,678.73 L 577.96,679.95 L 579.08,681.20 L 580.20,682.49 L 581.32,683.81 L 582.44,685.17 L 583.56,686.58 L 584.69,688.02 L 585.81,689.52 L 586.93,691.06 L 588.05,692.66 L 589.17,694.32 L 590.29,696.03 L 591.41,697.81 L 592.53,699.67 L 593.65,701.60 L 594.78,703.61 L 595.90,705.72 L 597.02,707.92 L 598.14,710.24 L 599.26,712.68 L 600.38,715.25 L 601.50,717.98 L 602.62,720.88 L 603.74,723.97 L 604.87,727.28 L 605.99,730.84 L 607.11,734.70 L 608.23,738.92 L 609.35,743.56 L 610.47,748.71 L 611.59,754.51 L 612.71,761.14 L 613.83,768.88 L 614.96,778.17 L 616.08,789.82 L 617.20,805.41 L 618.32,829.08 L 619.44,880.00" />
<text class="note" x="60.00" y="938.00">Both families lose pressure support; the n=1 barotrope does so much faster.</text>
<rect class="axis" x="700.00" y="560.00" width="560.00" height="320.00" />
<text class="label" x="700.00" y="550.00">Binding-energy ratio |E_g(lambda)| / |E_g(0)|</text>
<line class="grid" x1="700.00" y1="560.00" x2="700.00" y2="880.00" />
<text class="tick" x="688.00" y="898.00">0</text>
<line class="grid" x1="840.00" y1="560.00" x2="840.00" y2="880.00" />
<text class="tick" x="828.00" y="898.00">0.25</text>
<line class="grid" x1="980.00" y1="560.00" x2="980.00" y2="880.00" />
<text class="tick" x="968.00" y="898.00">0.5</text>
<line class="grid" x1="1120.00" y1="560.00" x2="1120.00" y2="880.00" />
<text class="tick" x="1108.00" y="898.00">0.75</text>
<line class="grid" x1="1204.00" y1="560.00" x2="1204.00" y2="880.00" />
<text class="tick" x="1192.00" y="898.00">0.9</text>
<line class="grid" x1="1254.40" y1="560.00" x2="1254.40" y2="880.00" />
<text class="tick" x="1242.40" y="898.00">0.99</text>
<text class="label" x="956.00" y="918.00">lambda</text>
<line class="grid" x1="700.00" y1="560.00" x2="1260.00" y2="560.00" />
<text class="tick" x="656.00" y="564.00">1</text>
<line class="grid" x1="700.00" y1="624.00" x2="1260.00" y2="624.00" />
<text class="tick" x="656.00" y="628.00">1e-1</text>
<line class="grid" x1="700.00" y1="688.00" x2="1260.00" y2="688.00" />
<text class="tick" x="656.00" y="692.00">1e-2</text>
<line class="grid" x1="700.00" y1="752.00" x2="1260.00" y2="752.00" />
<text class="tick" x="656.00" y="756.00">1e-3</text>
<line class="grid" x1="700.00" y1="816.00" x2="1260.00" y2="816.00" />
<text class="tick" x="656.00" y="820.00">1e-4</text>
<line class="grid" x1="700.00" y1="880.00" x2="1260.00" y2="880.00" />
<text class="tick" x="656.00" y="884.00">1e-5</text>
<path class="uniform" d="M 700.00,560.00 L 701.12,560.06 L 702.24,560.11 L 703.36,560.17 L 704.48,560.22 L 705.61,560.28 L 706.73,560.34 L 707.85,560.39 L 708.97,560.45 L 710.09,560.51 L 711.21,560.56 L 712.33,560.62 L 713.45,560.68 L 714.57,560.73 L 715.70,560.79 L 716.82,560.85 L 717.94,560.90 L 719.06,560.96 L 720.18,561.02 L 721.30,561.08 L 722.42,561.14 L 723.54,561.19 L 724.66,561.25 L 725.79,561.31 L 726.91,561.37 L 728.03,561.43 L 729.15,561.49 L 730.27,561.54 L 731.39,561.60 L 732.51,561.66 L 733.63,561.72 L 734.75,561.78 L 735.88,561.84 L 737.00,561.90 L 738.12,561.96 L 739.24,562.02 L 740.36,562.08 L 741.48,562.14 L 742.60,562.20 L 743.72,562.26 L 744.84,562.32 L 745.97,562.38 L 747.09,562.44 L 748.21,562.50 L 749.33,562.56 L 750.45,562.62 L 751.57,562.69 L 752.69,562.75 L 753.81,562.81 L 754.93,562.87 L 756.06,562.93 L 757.18,562.99 L 758.30,563.06 L 759.42,563.12 L 760.54,563.18 L 761.66,563.24 L 762.78,563.31 L 763.90,563.37 L 765.03,563.43 L 766.15,563.49 L 767.27,563.56 L 768.39,563.62 L 769.51,563.68 L 770.63,563.75 L 771.75,563.81 L 772.87,563.87 L 773.99,563.94 L 775.12,564.00 L 776.24,564.07 L 777.36,564.13 L 778.48,564.20 L 779.60,564.26 L 780.72,564.33 L 781.84,564.39 L 782.96,564.46 L 784.08,564.52 L 785.21,564.59 L 786.33,564.65 L 787.45,564.72 L 788.57,564.79 L 789.69,564.85 L 790.81,564.92 L 791.93,564.98 L 793.05,565.05 L 794.17,565.12 L 795.30,565.18 L 796.42,565.25 L 797.54,565.32 L 798.66,565.39 L 799.78,565.45 L 800.90,565.52 L 802.02,565.59 L 803.14,565.66 L 804.26,565.73 L 805.39,565.79 L 806.51,565.86 L 807.63,565.93 L 808.75,566.00 L 809.87,566.07 L 810.99,566.14 L 812.11,566.21 L 813.23,566.28 L 814.35,566.35 L 815.48,566.42 L 816.60,566.49 L 817.72,566.56 L 818.84,566.63 L 819.96,566.70 L 821.08,566.77 L 822.20,566.84 L 823.32,566.91 L 824.44,566.99 L 825.57,567.06 L 826.69,567.13 L 827.81,567.20 L 828.93,567.27 L 830.05,567.35 L 831.17,567.42 L 832.29,567.49 L 833.41,567.56 L 834.53,567.64 L 835.66,567.71 L 836.78,567.78 L 837.90,567.86 L 839.02,567.93 L 840.14,568.01 L 841.26,568.08 L 842.38,568.15 L 843.50,568.23 L 844.62,568.30 L 845.75,568.38 L 846.87,568.45 L 847.99,568.53 L 849.11,568.61 L 850.23,568.68 L 851.35,568.76 L 852.47,568.83 L 853.59,568.91 L 854.71,568.99 L 855.84,569.06 L 856.96,569.14 L 858.08,569.22 L 859.20,569.30 L 860.32,569.37 L 861.44,569.45 L 862.56,569.53 L 863.68,569.61 L 864.80,569.69 L 865.93,569.77 L 867.05,569.85 L 868.17,569.93 L 869.29,570.01 L 870.41,570.09 L 871.53,570.17 L 872.65,570.25 L 873.77,570.33 L 874.90,570.41 L 876.02,570.49 L 877.14,570.57 L 878.26,570.65 L 879.38,570.73 L 880.50,570.81 L 881.62,570.90 L 882.74,570.98 L 883.86,571.06 L 884.99,571.14 L 886.11,571.23 L 887.23,571.31 L 888.35,571.40 L 889.47,571.48 L 890.59,571.56 L 891.71,571.65 L 892.83,571.73 L 893.95,571.82 L 895.08,571.90 L 896.20,571.99 L 897.32,572.07 L 898.44,572.16 L 899.56,572.25 L 900.68,572.33 L 901.80,572.42 L 902.92,572.51 L 904.04,572.59 L 905.17,572.68 L 906.29,572.77 L 907.41,572.86 L 908.53,572.95 L 909.65,573.04 L 910.77,573.12 L 911.89,573.21 L 913.01,573.30 L 914.13,573.39 L 915.26,573.48 L 916.38,573.57 L 917.50,573.67 L 918.62,573.76 L 919.74,573.85 L 920.86,573.94 L 921.98,574.03 L 923.10,574.12 L 924.22,574.22 L 925.35,574.31 L 926.47,574.40 L 927.59,574.50 L 928.71,574.59 L 929.83,574.68 L 930.95,574.78 L 932.07,574.87 L 933.19,574.97 L 934.31,575.06 L 935.44,575.16 L 936.56,575.26 L 937.68,575.35 L 938.80,575.45 L 939.92,575.55 L 941.04,575.65 L 942.16,575.74 L 943.28,575.84 L 944.40,575.94 L 945.53,576.04 L 946.65,576.14 L 947.77,576.24 L 948.89,576.34 L 950.01,576.44 L 951.13,576.54 L 952.25,576.64 L 953.37,576.74 L 954.49,576.84 L 955.62,576.95 L 956.74,577.05 L 957.86,577.15 L 958.98,577.25 L 960.10,577.36 L 961.22,577.46 L 962.34,577.57 L 963.46,577.67 L 964.58,577.78 L 965.71,577.88 L 966.83,577.99 L 967.95,578.09 L 969.07,578.20 L 970.19,578.31 L 971.31,578.42 L 972.43,578.52 L 973.55,578.63 L 974.67,578.74 L 975.80,578.85 L 976.92,578.96 L 978.04,579.07 L 979.16,579.18 L 980.28,579.29 L 981.40,579.41 L 982.52,579.52 L 983.64,579.63 L 984.77,579.74 L 985.89,579.86 L 987.01,579.97 L 988.13,580.08 L 989.25,580.20 L 990.37,580.31 L 991.49,580.43 L 992.61,580.55 L 993.73,580.66 L 994.86,580.78 L 995.98,580.90 L 997.10,581.02 L 998.22,581.14 L 999.34,581.26 L 1000.46,581.38 L 1001.58,581.50 L 1002.70,581.62 L 1003.82,581.74 L 1004.95,581.86 L 1006.07,581.98 L 1007.19,582.10 L 1008.31,582.23 L 1009.43,582.35 L 1010.55,582.48 L 1011.67,582.60 L 1012.79,582.73 L 1013.91,582.85 L 1015.04,582.98 L 1016.16,583.11 L 1017.28,583.24 L 1018.40,583.37 L 1019.52,583.49 L 1020.64,583.62 L 1021.76,583.76 L 1022.88,583.89 L 1024.00,584.02 L 1025.13,584.15 L 1026.25,584.28 L 1027.37,584.42 L 1028.49,584.55 L 1029.61,584.69 L 1030.73,584.82 L 1031.85,584.96 L 1032.97,585.10 L 1034.09,585.23 L 1035.22,585.37 L 1036.34,585.51 L 1037.46,585.65 L 1038.58,585.79 L 1039.70,585.93 L 1040.82,586.07 L 1041.94,586.22 L 1043.06,586.36 L 1044.18,586.50 L 1045.31,586.65 L 1046.43,586.79 L 1047.55,586.94 L 1048.67,587.09 L 1049.79,587.23 L 1050.91,587.38 L 1052.03,587.53 L 1053.15,587.68 L 1054.27,587.83 L 1055.40,587.99 L 1056.52,588.14 L 1057.64,588.29 L 1058.76,588.45 L 1059.88,588.60 L 1061.00,588.76 L 1062.12,588.91 L 1063.24,589.07 L 1064.36,589.23 L 1065.49,589.39 L 1066.61,589.55 L 1067.73,589.71 L 1068.85,589.88 L 1069.97,590.04 L 1071.09,590.20 L 1072.21,590.37 L 1073.33,590.54 L 1074.45,590.70 L 1075.58,590.87 L 1076.70,591.04 L 1077.82,591.21 L 1078.94,591.38 L 1080.06,591.56 L 1081.18,591.73 L 1082.30,591.90 L 1083.42,592.08 L 1084.54,592.26 L 1085.67,592.44 L 1086.79,592.61 L 1087.91,592.80 L 1089.03,592.98 L 1090.15,593.16 L 1091.27,593.34 L 1092.39,593.53 L 1093.51,593.72 L 1094.64,593.90 L 1095.76,594.09 L 1096.88,594.28 L 1098.00,594.47 L 1099.12,594.67 L 1100.24,594.86 L 1101.36,595.06 L 1102.48,595.26 L 1103.60,595.45 L 1104.73,595.65 L 1105.85,595.85 L 1106.97,596.06 L 1108.09,596.26 L 1109.21,596.47 L 1110.33,596.68 L 1111.45,596.88 L 1112.57,597.10 L 1113.69,597.31 L 1114.82,597.52 L 1115.94,597.74 L 1117.06,597.95 L 1118.18,598.17 L 1119.30,598.39 L 1120.42,598.62 L 1121.54,598.84 L 1122.66,599.07 L 1123.78,599.29 L 1124.91,599.52 L 1126.03,599.75 L 1127.15,599.99 L 1128.27,600.22 L 1129.39,600.46 L 1130.51,600.70 L 1131.63,600.94 L 1132.75,601.19 L 1133.87,601.43 L 1135.00,601.68 L 1136.12,601.93 L 1137.24,602.18 L 1138.36,602.44 L 1139.48,602.70 L 1140.60,602.96 L 1141.72,603.22 L 1142.84,603.48 L 1143.96,603.75 L 1145.09,604.02 L 1146.21,604.29 L 1147.33,604.57 L 1148.45,604.85 L 1149.57,605.13 L 1150.69,605.41 L 1151.81,605.70 L 1152.93,605.99 L 1154.05,606.28 L 1155.18,606.57 L 1156.30,606.87 L 1157.42,607.18 L 1158.54,607.48 L 1159.66,607.79 L 1160.78,608.10 L 1161.90,608.42 L 1163.02,608.74 L 1164.14,609.06 L 1165.27,609.39 L 1166.39,609.72 L 1167.51,610.05 L 1168.63,610.39 L 1169.75,610.74 L 1170.87,611.08 L 1171.99,611.43 L 1173.11,611.79 L 1174.23,612.15 L 1175.36,612.52 L 1176.48,612.89 L 1177.60,613.26 L 1178.72,613.64 L 1179.84,614.03 L 1180.96,614.42 L 1182.08,614.82 L 1183.20,615.22 L 1184.32,615.63 L 1185.45,616.05 L 1186.57,616.47 L 1187.69,616.89 L 1188.81,617.33 L 1189.93,617.77 L 1191.05,618.22 L 1192.17,618.67 L 1193.29,619.14 L 1194.41,619.61 L 1195.54,620.09 L 1196.66,620.58 L 1197.78,621.07 L 1198.90,621.58 L 1200.02,622.09 L 1201.14,622.62 L 1202.26,623.15 L 1203.38,623.70 L 1204.51,624.25 L 1205.63,624.82 L 1206.75,625.40 L 1207.87,625.99 L 1208.99,626.59 L 1210.11,627.21 L 1211.23,627.84 L 1212.35,628.49 L 1213.47,629.15 L 1214.60,629.83 L 1215.72,630.52 L 1216.84,631.24 L 1217.96,631.97 L 1219.08,632.72 L 1220.20,633.49 L 1221.32,634.29 L 1222.44,635.10 L 1223.56,635.95 L 1224.69,636.81 L 1225.81,637.71 L 1226.93,638.64 L 1228.05,639.60 L 1229.17,640.59 L 1230.29,641.62 L 1231.41,642.69 L 1232.53,643.80 L 1233.65,644.96 L 1234.78,646.17 L 1235.90,647.43 L 1237.02,648.75 L 1238.14,650.14 L 1239.26,651.61 L 1240.38,653.15 L 1241.50,654.79 L 1242.62,656.53 L 1243.74,658.38 L 1244.87,660.37 L 1245.99,662.51 L 1247.11,664.82 L 1248.23,667.35 L 1249.35,670.13 L 1250.47,673.23 L 1251.59,676.70 L 1252.71,680.68 L 1253.83,685.33 L 1254.96,690.90 L 1256.08,697.89 L 1257.20,707.24 L 1258.32,721.45 L 1259.44,752.00" />
<path class="poly" d="M 700.00,560.00 L 701.12,560.08 L 702.24,560.17 L 703.36,560.25 L 704.48,560.34 L 705.61,560.42 L 706.73,560.50 L 707.85,560.59 L 708.97,560.67 L 710.09,560.76 L 711.21,560.84 L 712.33,560.93 L 713.45,561.01 L 714.57,561.10 L 715.70,561.19 L 716.82,561.27 L 717.94,561.36 L 719.06,561.44 L 720.18,561.53 L 721.30,561.62 L 722.42,561.70 L 723.54,561.79 L 724.66,561.88 L 725.79,561.97 L 726.91,562.05 L 728.03,562.14 L 729.15,562.23 L 730.27,562.32 L 731.39,562.41 L 732.51,562.49 L 733.63,562.58 L 734.75,562.67 L 735.88,562.76 L 737.00,562.85 L 738.12,562.94 L 739.24,563.03 L 740.36,563.12 L 741.48,563.21 L 742.60,563.30 L 743.72,563.39 L 744.84,563.48 L 745.97,563.57 L 747.09,563.66 L 748.21,563.75 L 749.33,563.84 L 750.45,563.94 L 751.57,564.03 L 752.69,564.12 L 753.81,564.21 L 754.93,564.30 L 756.06,564.40 L 757.18,564.49 L 758.30,564.58 L 759.42,564.68 L 760.54,564.77 L 761.66,564.86 L 762.78,564.96 L 763.90,565.05 L 765.03,565.15 L 766.15,565.24 L 767.27,565.34 L 768.39,565.43 L 769.51,565.53 L 770.63,565.62 L 771.75,565.72 L 772.87,565.81 L 773.99,565.91 L 775.12,566.00 L 776.24,566.10 L 777.36,566.20 L 778.48,566.29 L 779.60,566.39 L 780.72,566.49 L 781.84,566.59 L 782.96,566.69 L 784.08,566.78 L 785.21,566.88 L 786.33,566.98 L 787.45,567.08 L 788.57,567.18 L 789.69,567.28 L 790.81,567.38 L 791.93,567.48 L 793.05,567.58 L 794.17,567.68 L 795.30,567.78 L 796.42,567.88 L 797.54,567.98 L 798.66,568.08 L 799.78,568.18 L 800.90,568.28 L 802.02,568.38 L 803.14,568.49 L 804.26,568.59 L 805.39,568.69 L 806.51,568.80 L 807.63,568.90 L 808.75,569.00 L 809.87,569.11 L 810.99,569.21 L 812.11,569.31 L 813.23,569.42 L 814.35,569.52 L 815.48,569.63 L 816.60,569.73 L 817.72,569.84 L 818.84,569.94 L 819.96,570.05 L 821.08,570.16 L 822.20,570.26 L 823.32,570.37 L 824.44,570.48 L 825.57,570.59 L 826.69,570.69 L 827.81,570.80 L 828.93,570.91 L 830.05,571.02 L 831.17,571.13 L 832.29,571.24 L 833.41,571.35 L 834.53,571.46 L 835.66,571.57 L 836.78,571.68 L 837.90,571.79 L 839.02,571.90 L 840.14,572.01 L 841.26,572.12 L 842.38,572.23 L 843.50,572.34 L 844.62,572.46 L 845.75,572.57 L 846.87,572.68 L 847.99,572.79 L 849.11,572.91 L 850.23,573.02 L 851.35,573.14 L 852.47,573.25 L 853.59,573.37 L 854.71,573.48 L 855.84,573.60 L 856.96,573.71 L 858.08,573.83 L 859.20,573.94 L 860.32,574.06 L 861.44,574.18 L 862.56,574.30 L 863.68,574.41 L 864.80,574.53 L 865.93,574.65 L 867.05,574.77 L 868.17,574.89 L 869.29,575.01 L 870.41,575.13 L 871.53,575.25 L 872.65,575.37 L 873.77,575.49 L 874.90,575.61 L 876.02,575.73 L 877.14,575.85 L 878.26,575.98 L 879.38,576.10 L 880.50,576.22 L 881.62,576.35 L 882.74,576.47 L 883.86,576.59 L 884.99,576.72 L 886.11,576.84 L 887.23,576.97 L 888.35,577.09 L 889.47,577.22 L 890.59,577.35 L 891.71,577.47 L 892.83,577.60 L 893.95,577.73 L 895.08,577.85 L 896.20,577.98 L 897.32,578.11 L 898.44,578.24 L 899.56,578.37 L 900.68,578.50 L 901.80,578.63 L 902.92,578.76 L 904.04,578.89 L 905.17,579.02 L 906.29,579.16 L 907.41,579.29 L 908.53,579.42 L 909.65,579.55 L 910.77,579.69 L 911.89,579.82 L 913.01,579.96 L 914.13,580.09 L 915.26,580.23 L 916.38,580.36 L 917.50,580.50 L 918.62,580.64 L 919.74,580.77 L 920.86,580.91 L 921.98,581.05 L 923.10,581.19 L 924.22,581.33 L 925.35,581.46 L 926.47,581.60 L 927.59,581.75 L 928.71,581.89 L 929.83,582.03 L 930.95,582.17 L 932.07,582.31 L 933.19,582.45 L 934.31,582.60 L 935.44,582.74 L 936.56,582.89 L 937.68,583.03 L 938.80,583.18 L 939.92,583.32 L 941.04,583.47 L 942.16,583.61 L 943.28,583.76 L 944.40,583.91 L 945.53,584.06 L 946.65,584.21 L 947.77,584.36 L 948.89,584.51 L 950.01,584.66 L 951.13,584.81 L 952.25,584.96 L 953.37,585.11 L 954.49,585.26 L 955.62,585.42 L 956.74,585.57 L 957.86,585.73 L 958.98,585.88 L 960.10,586.04 L 961.22,586.19 L 962.34,586.35 L 963.46,586.51 L 964.58,586.66 L 965.71,586.82 L 966.83,586.98 L 967.95,587.14 L 969.07,587.30 L 970.19,587.46 L 971.31,587.62 L 972.43,587.79 L 973.55,587.95 L 974.67,588.11 L 975.80,588.28 L 976.92,588.44 L 978.04,588.61 L 979.16,588.77 L 980.28,588.94 L 981.40,589.11 L 982.52,589.28 L 983.64,589.45 L 984.77,589.61 L 985.89,589.78 L 987.01,589.96 L 988.13,590.13 L 989.25,590.30 L 990.37,590.47 L 991.49,590.65 L 992.61,590.82 L 993.73,591.00 L 994.86,591.17 L 995.98,591.35 L 997.10,591.53 L 998.22,591.70 L 999.34,591.88 L 1000.46,592.06 L 1001.58,592.24 L 1002.70,592.42 L 1003.82,592.61 L 1004.95,592.79 L 1006.07,592.97 L 1007.19,593.16 L 1008.31,593.34 L 1009.43,593.53 L 1010.55,593.72 L 1011.67,593.90 L 1012.79,594.09 L 1013.91,594.28 L 1015.04,594.47 L 1016.16,594.66 L 1017.28,594.86 L 1018.40,595.05 L 1019.52,595.24 L 1020.64,595.44 L 1021.76,595.63 L 1022.88,595.83 L 1024.00,596.03 L 1025.13,596.23 L 1026.25,596.43 L 1027.37,596.63 L 1028.49,596.83 L 1029.61,597.03 L 1030.73,597.23 L 1031.85,597.44 L 1032.97,597.64 L 1034.09,597.85 L 1035.22,598.06 L 1036.34,598.26 L 1037.46,598.47 L 1038.58,598.69 L 1039.70,598.90 L 1040.82,599.11 L 1041.94,599.32 L 1043.06,599.54 L 1044.18,599.75 L 1045.31,599.97 L 1046.43,600.19 L 1047.55,600.41 L 1048.67,600.63 L 1049.79,600.85 L 1050.91,601.07 L 1052.03,601.30 L 1053.15,601.52 L 1054.27,601.75 L 1055.40,601.98 L 1056.52,602.21 L 1057.64,602.44 L 1058.76,602.67 L 1059.88,602.90 L 1061.00,603.14 L 1062.12,603.37 L 1063.24,603.61 L 1064.36,603.85 L 1065.49,604.09 L 1066.61,604.33 L 1067.73,604.57 L 1068.85,604.81 L 1069.97,605.06 L 1071.09,605.31 L 1072.21,605.55 L 1073.33,605.80 L 1074.45,606.05 L 1075.58,606.31 L 1076.70,606.56 L 1077.82,606.82 L 1078.94,607.07 L 1080.06,607.33 L 1081.18,607.59 L 1082.30,607.86 L 1083.42,608.12 L 1084.54,608.39 L 1085.67,608.65 L 1086.79,608.92 L 1087.91,609.19 L 1089.03,609.47 L 1090.15,609.74 L 1091.27,610.02 L 1092.39,610.29 L 1093.51,610.57 L 1094.64,610.86 L 1095.76,611.14 L 1096.88,611.42 L 1098.00,611.71 L 1099.12,612.00 L 1100.24,612.29 L 1101.36,612.59 L 1102.48,612.88 L 1103.60,613.18 L 1104.73,613.48 L 1105.85,613.78 L 1106.97,614.09 L 1108.09,614.39 L 1109.21,614.70 L 1110.33,615.01 L 1111.45,615.33 L 1112.57,615.64 L 1113.69,615.96 L 1114.82,616.28 L 1115.94,616.60 L 1117.06,616.93 L 1118.18,617.26 L 1119.30,617.59 L 1120.42,617.92 L 1121.54,618.26 L 1122.66,618.60 L 1123.78,618.94 L 1124.91,619.28 L 1126.03,619.63 L 1127.15,619.98 L 1128.27,620.34 L 1129.39,620.69 L 1130.51,621.05 L 1131.63,621.41 L 1132.75,621.78 L 1133.87,622.15 L 1135.00,622.52 L 1136.12,622.90 L 1137.24,623.28 L 1138.36,623.66 L 1139.48,624.04 L 1140.60,624.43 L 1141.72,624.83 L 1142.84,625.22 L 1143.96,625.63 L 1145.09,626.03 L 1146.21,626.44 L 1147.33,626.85 L 1148.45,627.27 L 1149.57,627.69 L 1150.69,628.12 L 1151.81,628.54 L 1152.93,628.98 L 1154.05,629.42 L 1155.18,629.86 L 1156.30,630.31 L 1157.42,630.76 L 1158.54,631.22 L 1159.66,631.68 L 1160.78,632.15 L 1161.90,632.63 L 1163.02,633.11 L 1164.14,633.59 L 1165.27,634.08 L 1166.39,634.58 L 1167.51,635.08 L 1168.63,635.59 L 1169.75,636.10 L 1170.87,636.62 L 1171.99,637.15 L 1173.11,637.69 L 1174.23,638.23 L 1175.36,638.78 L 1176.48,639.33 L 1177.60,639.90 L 1178.72,640.47 L 1179.84,641.05 L 1180.96,641.63 L 1182.08,642.23 L 1183.20,642.83 L 1184.32,643.45 L 1185.45,644.07 L 1186.57,644.70 L 1187.69,645.34 L 1188.81,645.99 L 1189.93,646.66 L 1191.05,647.33 L 1192.17,648.01 L 1193.29,648.71 L 1194.41,649.41 L 1195.54,650.13 L 1196.66,650.86 L 1197.78,651.61 L 1198.90,652.37 L 1200.02,653.14 L 1201.14,653.92 L 1202.26,654.73 L 1203.38,655.54 L 1204.51,656.38 L 1205.63,657.23 L 1206.75,658.10 L 1207.87,658.98 L 1208.99,659.89 L 1210.11,660.82 L 1211.23,661.76 L 1212.35,662.73 L 1213.47,663.73 L 1214.60,664.74 L 1215.72,665.79 L 1216.84,666.86 L 1217.96,667.95 L 1219.08,669.08 L 1220.20,670.24 L 1221.32,671.43 L 1222.44,672.66 L 1223.56,673.92 L 1224.69,675.22 L 1225.81,676.57 L 1226.93,677.96 L 1228.05,679.39 L 1229.17,680.88 L 1230.29,682.43 L 1231.41,684.03 L 1232.53,685.70 L 1233.65,687.44 L 1234.78,689.25 L 1235.90,691.15 L 1237.02,693.13 L 1238.14,695.22 L 1239.26,697.41 L 1240.38,699.73 L 1241.50,702.18 L 1242.62,704.79 L 1243.74,707.57 L 1244.87,710.55 L 1245.99,713.76 L 1247.11,717.23 L 1248.23,721.03 L 1249.35,725.20 L 1250.47,729.84 L 1251.59,735.06 L 1252.71,741.02 L 1253.83,747.99 L 1254.96,756.36 L 1256.08,766.83 L 1257.20,780.87 L 1258.32,802.17 L 1259.44,848.00" />
<text class="note" x="700.00" y="938.00">The binding energy collapses to zero, so no self-bound compact object survives.</text>
<text class="note" x="60" y="940">Summary: literal self-gravity removal drives P_c, |E_g|, and the virial support integral to zero; for the n=1 barotrope the finite-mass radius diverges like (1-lambda)^(-1/2).</text>
</svg>