<svg xmlns="http://www.w3.org/2000/svg" width="980" height="420">
  <rect width="100%" height="100%" fill="#f8fbff" />
  <text x="24" y="30" font-size="22" font-weight="700" fill="#102a43">Request 4 CRD Coverage Map</text>
  <text x="24" y="52" font-size="13" fill="#486581">valid files=67  normal points=961  stations=APOL,GRSM,MATM,WETL</text>
  <text x="24" y="64" font-size="14" fill="#102a43">apollo11</text><rect x="120" y="52" width="70" height="14" rx="4" fill="#1f6feb" /><text x="198" y="64" font-size="12" fill="#486581">118 rows</text><text x="24" y="92" font-size="14" fill="#102a43">apollo14</text><rect x="120" y="80" width="61" height="14" rx="4" fill="#1f6feb" /><text x="189" y="92" font-size="12" fill="#486581">104 rows</text><text x="24" y="120" font-size="14" fill="#102a43">apollo15</text><rect x="120" y="108" width="260" height="14" rx="4" fill="#1f6feb" /><text x="388" y="120" font-size="12" fill="#486581">441 rows</text><text x="24" y="148" font-size="14" fill="#102a43">luna17</text><rect x="120" y="136" width="65" height="14" rx="4" fill="#1f6feb" /><text x="193" y="148" font-size="12" fill="#486581">111 rows</text><text x="24" y="176" font-size="14" fill="#102a43">luna21</text><rect x="120" y="164" width="87" height="14" rx="4" fill="#1f6feb" /><text x="215" y="176" font-size="12" fill="#486581">147 rows</text><text x="24" y="204" font-size="14" fill="#102a43">nglr1</text><rect x="120" y="192" width="24" height="14" rx="4" fill="#1f6feb" /><text x="152" y="204" font-size="12" fill="#486581">40 rows</text>
  <text x="24" y="332" font-size="18" font-weight="700" fill="#102a43">Representative Case Shortlist</text>
  <text x="24" y="88" font-size="14" fill="#102a43">1. apollo15_202503.np2  [WETL/apollo15]</text><text x="420" y="88" font-size="13" fill="#486581">rows=123  station_mix=WETL:60,APOL:35,GRSM:28</text><text x="24" y="122" font-size="14" fill="#102a43">2. luna21_202506.np2  [GRSM/luna21]</text><text x="420" y="122" font-size="13" fill="#486581">rows=9  station_mix=GRSM:9</text><text x="24" y="156" font-size="14" fill="#102a43">3. apollo15_202511.np2  [APOL/apollo15]</text><text x="420" y="156" font-size="13" fill="#486581">rows=32  station_mix=APOL:26,MATM:6</text><text x="24" y="190" font-size="14" fill="#102a43">4. luna17_202502.np2  [GRSM/luna17]</text><text x="420" y="190" font-size="13" fill="#486581">rows=51  station_mix=GRSM:48,APOL:3</text><text x="24" y="224" font-size="14" fill="#102a43">5. apollo15_202502.np2  [GRSM/apollo15]</text><text x="420" y="224" font-size="13" fill="#486581">rows=99  station_mix=GRSM:74,APOL:20,MATM:5</text><text x="24" y="258" font-size="14" fill="#102a43">6. luna21_202502.np2  [WETL/luna21]</text><text x="420" y="258" font-size="13" fill="#486581">rows=71  station_mix=WETL:41,GRSM:28,APOL:2</text><text x="24" y="292" font-size="14" fill="#102a43">7. nglr1_202503.np2  [APOL/nglr1]</text><text x="420" y="292" font-size="13" fill="#486581">rows=11  station_mix=APOL:9,WETL:2</text><text x="24" y="326" font-size="14" fill="#102a43">8. apollo11_202502.np2  [GRSM/apollo11]</text><text x="420" y="326" font-size="13" fill="#486581">rows=45  station_mix=GRSM:42,APOL:3</text>
</svg>
