<svg xmlns="http://www.w3.org/2000/svg" width="980" height="620" viewBox="0 0 980 620">
<rect width="980" height="620" fill="#f8fafc"/>
<text x="48" y="56" font-family="sans-serif" font-size="24" font-weight="700" fill="#0f172a">Request 6 Source Scout</text>
<text x="48" y="84" font-family="sans-serif" font-size="14" fill="#334155">Actual gamma-measured systems were projected onto the current clock-only basis around s* to see which sources add slope information rather than just more of the same amplitude direction.</text>
<text x="48" y="110" font-family="monospace" font-size="13" fill="#475569">current |kappa_*|_95 = 8.416e+00; audit target: |Delta s| ~ 0.054, sigma_delta ~ 2.0e-04</text>
<rect x="90.0" y="150.0" width="760.0" height="340.0" fill="white" stroke="#0f172a" stroke-width="1.2"/>
<line x1="90.0" y1="150.0" x2="90.0" y2="490.0" stroke="#e2e8f0" stroke-width="1"/>
<text x="90.0" y="514.0" text-anchor="middle" font-family="monospace" font-size="12" fill="#475569">-0.020</text>
<line x1="216.7" y1="150.0" x2="216.7" y2="490.0" stroke="#e2e8f0" stroke-width="1"/>
<text x="216.7" y="514.0" text-anchor="middle" font-family="monospace" font-size="12" fill="#475569">-0.005</text>
<line x1="343.3" y1="150.0" x2="343.3" y2="490.0" stroke="#e2e8f0" stroke-width="1"/>
<text x="343.3" y="514.0" text-anchor="middle" font-family="monospace" font-size="12" fill="#475569">+0.010</text>
<line x1="470.0" y1="150.0" x2="470.0" y2="490.0" stroke="#e2e8f0" stroke-width="1"/>
<text x="470.0" y="514.0" text-anchor="middle" font-family="monospace" font-size="12" fill="#475569">+0.025</text>
<line x1="596.7" y1="150.0" x2="596.7" y2="490.0" stroke="#e2e8f0" stroke-width="1"/>
<text x="596.7" y="514.0" text-anchor="middle" font-family="monospace" font-size="12" fill="#475569">+0.040</text>
<line x1="723.3" y1="150.0" x2="723.3" y2="490.0" stroke="#e2e8f0" stroke-width="1"/>
<text x="723.3" y="514.0" text-anchor="middle" font-family="monospace" font-size="12" fill="#475569">+0.055</text>
<line x1="850.0" y1="150.0" x2="850.0" y2="490.0" stroke="#e2e8f0" stroke-width="1"/>
<text x="850.0" y="514.0" text-anchor="middle" font-family="monospace" font-size="12" fill="#475569">+0.070</text>
<line x1="90.0" y1="490.0" x2="850.0" y2="490.0" stroke="#e2e8f0" stroke-width="1"/>
<text x="80.0" y="494.0" text-anchor="end" font-family="monospace" font-size="12" fill="#475569">1e-04</text>
<line x1="90.0" y1="429.9" x2="850.0" y2="429.9" stroke="#e2e8f0" stroke-width="1"/>
<text x="80.0" y="433.9" text-anchor="end" font-family="monospace" font-size="12" fill="#475569">3e-04</text>
<line x1="90.0" y1="364.0" x2="850.0" y2="364.0" stroke="#e2e8f0" stroke-width="1"/>
<text x="80.0" y="368.0" text-anchor="end" font-family="monospace" font-size="12" fill="#475569">1e-03</text>
<line x1="90.0" y1="303.9" x2="850.0" y2="303.9" stroke="#e2e8f0" stroke-width="1"/>
<text x="80.0" y="307.9" text-anchor="end" font-family="monospace" font-size="12" fill="#475569">3e-03</text>
<line x1="90.0" y1="238.1" x2="850.0" y2="238.1" stroke="#e2e8f0" stroke-width="1"/>
<text x="80.0" y="242.1" text-anchor="end" font-family="monospace" font-size="12" fill="#475569">1e-02</text>
<line x1="90.0" y1="177.9" x2="850.0" y2="177.9" stroke="#e2e8f0" stroke-width="1"/>
<text x="80.0" y="181.9" text-anchor="end" font-family="monospace" font-size="12" fill="#475569">3e-02</text>
<line x1="717.2" y1="150.0" x2="717.2" y2="490.0" stroke="#2563eb" stroke-width="1.5" stroke-dasharray="5 4"/>
<line x1="-193.6" y1="150.0" x2="-193.6" y2="490.0" stroke="#2563eb" stroke-width="1.5" stroke-dasharray="5 4"/>
<line x1="90.0" y1="452.2" x2="850.0" y2="452.2" stroke="#2563eb" stroke-width="1.5" stroke-dasharray="5 4"/>
<text x="846.0" y="444.2" text-anchor="end" font-family="sans-serif" font-size="12" fill="#1d4ed8">single-source precision target</text>
<circle cx="478.2" cy="456.0" r="6.2" fill="#b45309" stroke="white" stroke-width="1.4"/>
<text x="486.2" y="448.0" font-family="sans-serif" font-size="12" fill="#0f172a">PSR B1913+16</text>
<circle cx="751.7" cy="174.7" r="6.2" fill="#b45309" stroke="white" stroke-width="1.4"/>
<text x="759.7" y="166.7" font-family="sans-serif" font-size="12" fill="#0f172a">PSR J1913+1102</text>
<circle cx="132.0" cy="218.8" r="6.2" fill="#7c3aed" stroke="white" stroke-width="1.4"/>
<text x="140.0" y="210.8" font-family="sans-serif" font-size="12" fill="#0f172a">PSR J1141-6545</text>
<circle cx="218.1" cy="283.5" r="6.2" fill="#b91c1c" stroke="white" stroke-width="1.4"/>
<text x="226.1" y="275.5" font-family="sans-serif" font-size="12" fill="#0f172a">PSR J1906+0746</text>
<circle cx="270.7" cy="251.4" r="6.2" fill="#0f766e" stroke="white" stroke-width="1.4"/>
<text x="278.7" y="243.4" font-family="sans-serif" font-size="12" fill="#0f172a">PSR J1756-2251</text>
<circle cx="265.2" cy="298.0" r="6.2" fill="#0f766e" stroke="white" stroke-width="1.4"/>
<text x="273.2" y="290.0" font-family="sans-serif" font-size="12" fill="#0f172a">PSR J1757-1854</text>
<text x="470.0" y="544.0" text-anchor="middle" font-family="sans-serif" font-size="14" fill="#0f172a">delta s = s_candidate - s*</text>
<text x="28" y="320.0" transform="rotate(-90 28 320.0)" text-anchor="middle" font-family="sans-serif" font-size="14" fill="#0f172a">fractional gamma uncertainty (proxy for sigma_delta)</text>
<circle cx="96.0" cy="540.0" r="6" fill="#0f766e"/>
<text x="108.0" y="544.0" font-family="sans-serif" font-size="13" fill="#0f172a">clean</text>
<circle cx="236.0" cy="540.0" r="6" fill="#b45309"/>
<text x="248.0" y="544.0" font-family="sans-serif" font-size="13" fill="#0f172a">moderate</text>
<circle cx="376.0" cy="540.0" r="6" fill="#7c3aed"/>
<text x="388.0" y="544.0" font-family="sans-serif" font-size="13" fill="#0f172a">conditional</text>
<circle cx="516.0" cy="540.0" r="6" fill="#b91c1c"/>
<text x="528.0" y="544.0" font-family="sans-serif" font-size="13" fill="#0f172a">tricky</text>
</svg>